<?xml version="1.0" encoding="utf-8"?>
<!-- Generator: Adobe Illustrator 22.0.1, SVG Export Plug-In . SVG Version: 6.00 Build 0)  -->
<svg version="1.1" id="Layer_1" xmlns="http://www.w3.org/2000/svg" xmlns:xlink="http://www.w3.org/1999/xlink" x="0px" y="0px"
	 viewBox="0 0 10 10" style="enable-background:new 0 0 10 10;" xml:space="preserve">
<style type="text/css">
	.st0{fill:#FFFFFF;}
</style>
<g>
	<path class="st0" d="M7,4.7c0-0.1-0.1-0.2-0.1-0.2L2.9,0.6v1.9l1.8,1.8L5.4,5L4.7,5.7L2.9,7.5v1.9l3.9-3.9C6.9,5.4,7,5.3,7,5.3
		C7.1,5.1,7.1,4.9,7,4.7z"/>
	<polygon class="st0" points="2.9,2.5 2.9,4.3 4.7,4.3 	"/>
	<polygon class="st0" points="2.9,5.7 2.9,7.5 4.7,5.7 	"/>
	<path class="st0" d="M6.9,5.5C6.9,5.4,7,5.3,7,5.3C7,5.3,6.9,5.4,6.9,5.5L6.9,5.5z"/>
	<path class="st0" d="M6.9,4.5L6.9,4.5C6.9,4.6,7,4.7,7,4.7C7,4.7,6.9,4.6,6.9,4.5z"/>
	<polygon class="st0" points="5.4,5 4.7,4.3 2.9,4.3 2.9,5.7 4.7,5.7 	"/>
</g>
</svg>
