<svg width="43" height="43" viewBox="0 0 43 43" fill="none" xmlns="http://www.w3.org/2000/svg">
<path d="M35.5778 27.9278C35.5785 27.603 35.4888 27.285 35.3183 27.0084L33.6655 24.3469C33.4595 23.9376 33.3527 23.4855 33.3542 23.0273V14.8276C33.3542 9.50448 29.0404 5.18965 23.7186 5.18965H19.2713C13.9495 5.18965 9.63573 9.50448 9.63573 14.8276V23.0273C9.63724 23.4855 9.53051 23.9378 9.32441 24.347L7.67153 27.0085C7.50104 27.285 7.41134 27.603 7.41211 27.9278C7.41581 28.8805 8.18667 29.6515 9.13908 29.6552H33.8507C34.8032 29.6514 35.5741 28.8804 35.5778 27.9278Z" fill="#23AF7C"/>
<path d="M23.7186 5.18966L27.4245 0H15.5654L19.2714 5.18966V6.6724H23.7186V5.18966Z" fill="#23AF7C"/>
<path d="M35.3176 27.0085L33.6647 24.3469C33.4587 23.9376 33.352 23.4855 33.3534 23.0273V14.8276C33.3586 12.6806 32.6463 10.5929 31.3299 8.89652C29.3509 19.8023 22.3837 26.0892 15.8389 29.6552H33.85C34.8076 29.6589 35.5874 28.8856 35.5911 27.927C35.5926 27.6023 35.5029 27.2842 35.3324 27.0085H35.3176V27.0085Z" fill="#21A36E"/>
<path d="M25.2005 16.3103V15.8359C25.1968 14.4621 24.0834 13.3486 22.71 13.3449H22.2356V11.8621H20.7532V13.3449H20.2789C18.9032 13.3404 17.7847 14.4517 17.7803 15.8277C17.7766 16.8723 18.4251 17.8079 19.4043 18.1712L20.7533 18.6753V21.5H20.2789C19.7223 21.5 19.2709 21.0484 19.2709 20.4917V20.0172H17.7885V20.4917C17.7922 21.8655 18.9055 22.979 20.2789 22.9827H22.7101C24.0858 22.9872 25.2043 21.8759 25.2087 20.4999C25.2124 19.4553 24.5639 18.5196 23.5847 18.1564L22.2357 17.6523V14.8276H22.7101C23.2667 14.8276 23.7181 15.2792 23.7181 15.8359V16.3104H25.2005V16.3103ZM23.0659 19.5428C23.4572 19.6947 23.7159 20.0714 23.7181 20.4917C23.7181 21.0485 23.2667 21.5 22.71 21.5H22.2357V19.2314L23.0659 19.5428ZM20.7534 17.0962L19.9232 16.7848C19.5318 16.6328 19.2731 16.2562 19.2709 15.8358C19.2709 15.279 19.7223 14.8275 20.279 14.8275H20.7533V17.0962H20.7534Z" fill="#CAFFEC"/>
<path d="M36.3193 7.41378C36.0673 5.89246 34.8754 4.70033 33.3545 4.44825C34.8754 4.19616 36.0673 3.00404 36.3193 1.48271C36.5713 3.00404 37.7631 4.19612 39.2841 4.44825C37.7631 4.70033 36.5713 5.89254 36.3193 7.41378Z" fill="#38D39F"/>
<path d="M2.96481 22.2413C2.71278 20.7201 1.52095 19.5279 0 19.2759C1.52095 19.0238 2.71278 17.8317 2.96481 16.3104C3.21683 17.8317 4.40866 19.0238 5.92962 19.2759C4.40866 19.5279 3.21674 20.7201 2.96481 22.2413Z" fill="#38D39F"/>
<path d="M42.6708 25.8667C42.0623 24.8421 40.7548 24.4796 39.706 25.0438L29.1884 29.5366C29.0031 29.6151 28.8038 29.6559 28.6029 29.6552H15.5652C14.7462 29.6552 14.0828 28.9916 14.0828 28.1724C14.0828 27.3532 14.7462 26.6897 15.5652 26.6897H21.4948C23.9512 26.6897 25.9421 24.6983 25.9421 22.2413H13.6085C11.5642 22.2428 9.63124 23.1733 8.35341 24.7695L3.70605 30.3965L8.93894 39.9899L29.0773 35.1488C29.9475 34.9478 30.7895 34.6394 31.5826 34.2294L41.9593 28.9136C42.9918 28.265 43.309 26.9061 42.6708 25.8667Z" fill="#38D39F"/>
<path d="M0 29.6551V43H9.63557L11.8591 40.7759L2.96481 27.4311L0 29.6551Z" fill="#23AF7C"/>
<path d="M0 43H9.63557L11.8591 40.7759L10.2285 38.3293C6.93173 39.6905 3.50442 40.7114 0 41.3764V43Z" fill="#21A36E"/>
<path d="M6.6709 40.7781C7.48962 40.7781 8.15333 40.1142 8.15333 39.2953C8.15333 38.4764 7.48962 37.8125 6.6709 37.8125C5.85218 37.8125 5.18848 38.4764 5.18848 39.2953C5.18848 40.1142 5.85218 40.7781 6.6709 40.7781Z" fill="#CAFFEC"/>
</svg>
