<svg width="49" height="49" viewBox="0 0 49 49" fill="none" xmlns="http://www.w3.org/2000/svg">
<path d="M49.0001 12.3284V49L36.75 44.6444L33.4834 26.3086L36.75 7.97284L49.0001 12.3284Z" fill="#38D39F"/>
<path d="M36.7501 7.97284V44.6444L24.5001 49L22.3223 30.6642L24.5001 12.3284L36.7501 7.97284Z" fill="#23AF7C"/>
<path d="M24.5001 12.3284V49L12.25 44.6444L8.9834 26.3086L12.25 7.97284L24.5001 12.3284Z" fill="#38D39F"/>
<path d="M12.25 7.97284V44.6444L0 49V12.3284L12.25 7.97284Z" fill="#23AF7C"/>
<path d="M41.6891 11.0642C41.6891 19.9238 31.6874 28.129 31.6874 28.129C31.103 28.6085 30.1466 28.6085 29.5622 28.129C29.5622 28.129 19.5605 19.9238 19.5605 11.0642C19.5604 4.9537 24.5141 0 30.6248 0C36.7354 0 41.6891 4.9537 41.6891 11.0642Z" fill="#59EFB9"/>
<path d="M30.6251 16.6307C27.5557 16.6307 25.0586 14.1335 25.0586 11.0642C25.0586 7.99489 27.5557 5.49775 30.6251 5.49775C33.6945 5.49775 36.1916 7.99494 36.1916 11.0642C36.1916 14.1336 33.6945 16.6307 30.6251 16.6307Z" fill="white"/>
<path d="M18.8233 30.364C18.8233 35.6275 12.8813 40.5021 12.8813 40.5021C12.5341 40.7869 11.9659 40.7869 11.6187 40.5021C11.6187 40.5021 5.67676 35.6275 5.67676 30.364C5.67671 26.7338 8.61971 23.7908 12.25 23.7908C15.8802 23.7908 18.8233 26.7338 18.8233 30.364Z" fill="#59EFB9"/>
<path d="M12.2504 33.671C10.4268 33.671 8.94336 32.1875 8.94336 30.364C8.94336 28.5406 10.4268 27.057 12.2504 27.057C14.0739 27.057 15.5574 28.5406 15.5574 30.364C15.5574 32.1875 14.0739 33.671 12.2504 33.671Z" fill="white"/>
</svg>
