<svg width="44" height="41" viewBox="0 0 44 41" fill="none" xmlns="http://www.w3.org/2000/svg">
<path d="M3.79296 8.42014H40.9657C42.6415 8.42014 44 9.77701 44 11.451V37.9695C44 39.6432 42.6415 41 40.9657 41H3.79296C1.69827 41 0 39.3042 0 37.2117V12.2088C0 10.1163 1.69827 8.42014 3.79296 8.42014Z" fill="#23AF7C"/>
<path d="M4.55176 8.42014H9.1034V41H4.55176V8.42014Z" fill="#38D39F"/>
<path d="M34.8965 8.42014H39.4481V41H34.8965V8.42014Z" fill="#38D39F"/>
<path d="M30.345 25.0889C30.345 29.6918 26.6087 33.4235 22 33.4235C17.3912 33.4235 13.6553 29.6918 13.6553 25.0889C13.6553 20.486 17.3912 16.7547 22 16.7547C26.6087 16.7547 30.345 20.486 30.345 25.0889Z" fill="#38D39F"/>
<path d="M24.8398 28.0273L22.0002 29.648L19.1605 28.0273C17.6912 27.1884 16.9399 25.4919 17.3071 23.842C17.5797 22.6163 18.7953 21.8435 20.0222 22.1157C20.4452 22.2093 20.8322 22.4215 21.1384 22.7273L22.0002 23.5865L22.8619 22.7259C23.7509 21.8381 25.1917 21.8381 26.0805 22.7259C26.3867 23.0317 26.5992 23.4182 26.6932 23.8403C27.0611 25.4909 26.3099 27.1885 24.8398 28.0273Z" fill="#CAFFEC"/>
<path d="M14.4132 0.0860004H9.10284C7.84604 0.0860004 6.82715 1.10353 6.82715 2.35884V8.42023H9.86152V3.11648H14.4132V0.0860004Z" fill="#23AF7C"/>
<path d="M34.1386 0.0859968H29.5869V3.11656H34.1386V8.42022H37.1728V2.35875C37.1728 1.10344 36.154 0.0859108 34.8971 0.0859108H34.1386V0.0859968Z" fill="#23AF7C"/>
<path d="M9.1034 13.7239C8.6845 13.7239 8.34473 13.385 8.34473 12.9662V8.42022C8.34473 8.00184 8.68441 7.6625 9.1034 7.6625C9.5224 7.6625 9.86208 8.00176 9.86208 8.42022V12.9662C9.86208 13.3849 9.52231 13.7239 9.1034 13.7239Z" fill="#4EDDA9"/>
<path d="M9.10284 11.451L11.3789 12.9662V19.0275H6.82715V12.9662L9.10284 11.451Z" fill="#CAFFEC"/>
<path d="M13.6553 0H30.345V3.2005H13.6553V0Z" fill="#38D39F"/>
</svg>
