<svg width="50" height="50" viewBox="0 0 50 50" fill="none" xmlns="http://www.w3.org/2000/svg">
    <path d="M31.7052 22.1307L31.713 22.1217L31.7204 22.1124C32.8191 20.7222 33.3935 18.99 33.3434 17.2193C33.4006 16.1855 33.231 15.1516 32.8464 14.1901C32.459 13.2217 31.8629 12.3505 31.1007 11.6385L31.1008 11.6384L31.0908 11.6295C29.5801 10.2924 27.5014 9.65625 24.9219 9.65625H24.9216C22.1316 9.65794 19.3849 10.3463 16.9239 11.6605L16.5163 11.8781L16.7011 12.3016L17.8605 14.9578L18.0812 15.4634L18.5627 15.1943C20.4473 14.1411 22.5677 13.5814 24.7266 13.5672C26.1334 13.5674 27.2563 13.8758 28.0169 14.4662C28.7575 15.0411 29.2172 15.9317 29.2172 17.2539C29.2172 18.3971 28.9814 19.1912 28.4097 20.006C27.8151 20.8533 26.851 21.7345 25.3319 23.0191C24.1994 23.9154 23.2614 25.033 22.5749 26.3038L22.5608 26.33L22.5499 26.3576C21.9256 27.9374 21.672 29.6393 21.8087 31.3324L21.8458 31.7922H22.307H24.8414H25.3854L25.3396 31.2501C25.2454 30.1339 25.4445 29.0126 25.9167 27.9974C26.6029 26.9833 27.4449 26.0838 28.4116 25.3322L28.4117 25.3324L28.4225 25.3235C29.6029 24.3516 30.7009 23.2837 31.7052 22.1307ZM12.2566 5.92817C16.0286 3.40781 20.4632 2.06255 24.9997 2.0625C31.0811 2.06946 36.9114 4.48834 41.2115 8.7885C45.5117 13.0887 47.9306 18.9191 47.9375 25.0006C47.9374 29.537 46.5921 33.9715 44.0718 37.7434C41.5514 41.5154 37.9691 44.4554 33.7778 46.1915C29.5865 47.9276 24.9746 48.3818 20.5251 47.4968C16.0757 46.6117 11.9886 44.4271 8.78075 41.2193C5.57288 38.0114 3.3883 33.9243 2.50325 29.4749C1.6182 25.0254 2.07244 20.4135 3.80852 16.2222C5.54461 12.0309 8.48457 8.44857 12.2566 5.92817ZM21.8576 39.8645C22.3253 40.177 22.8751 40.3438 23.4375 40.3438C24.1917 40.3438 24.915 40.0441 25.4483 39.5108C25.9817 38.9775 26.2813 38.2542 26.2813 37.5C26.2813 36.9376 26.1145 36.3878 25.802 35.9201C25.4895 35.4524 25.0454 35.088 24.5258 34.8727C24.0061 34.6575 23.4344 34.6012 22.8827 34.7109C22.3311 34.8206 21.8244 35.0915 21.4267 35.4892C21.029 35.8869 20.7581 36.3936 20.6484 36.9452C20.5387 37.4968 20.595 38.0686 20.8102 38.5883C21.0255 39.1079 21.39 39.552 21.8576 39.8645Z" fill="white" stroke="#097DA8"/>
</svg>
