<svg width="120" height="70" viewBox="0 0 120 70" fill="none" xmlns="http://www.w3.org/2000/svg">
<rect x="0.5" y="0.5" width="119" height="69" rx="4.5" fill="#F9F9F9" stroke="#F3F3F3"/>
<g opacity="0.95">
<path d="M56.8043 27.7817L52.8138 36.6259L48.8453 27.7817H43.7557V40.4837L38.0834 27.7817H33.7904L28 40.9631H31.43L32.6913 38.02H39.175L40.4659 40.9631H47.0086V31.1748L51.3459 40.9631H54.2964L58.7369 31.3445V40.9631H61.9898V27.7817H56.8043ZM33.9231 35.1728L35.8557 30.57L37.8694 35.1728H33.9231Z" fill="#1B6DBE"/>
<path d="M84.1145 34.2286L90.0007 27.8186H85.811L82.0491 31.9051L78.4052 27.7817H65.4525V40.9631H77.9848L81.9311 36.6038L85.7815 41H89.9565L84.1145 34.2286ZM76.2661 38.197H68.6981V35.5932H75.9416V33.0927H68.6981V30.6216L76.6866 30.6437L79.8879 34.2286L76.2661 38.197Z" fill="#1B6DBE"/>
</g>
</svg>
