<svg width="60" height="60" viewBox="0 0 60 60" fill="none" xmlns="http://www.w3.org/2000/svg">
<path d="M30 60C46.5685 60 60 46.5685 60 30C60 13.4315 46.5685 0 30 0C13.4315 0 0 13.4315 0 30C0 46.5685 13.4315 60 30 60Z" fill="#6CBE4F"/>
<path d="M44.0764 31.2475L44.0597 31.2165L44.0569 31.2113C44.0468 31.1801 44.0392 31.1474 44.0277 31.1136L44.0263 31.1111L44.0248 31.1085L44.0233 31.1058L44.0219 31.1033L44.0204 31.1007L44.0191 31.0981L44.0162 31.0929C43.6641 29.9154 42.9659 28.8708 42.0125 28.0951L42.011 28.0925C41.9828 28.071 41.9532 28.0469 41.9249 28.0255L41.8859 27.9965L41.8577 27.9751L41.8457 27.965L41.8187 27.9461L41.8067 27.936L41.7799 27.9171L41.7677 27.907L41.7395 27.8856L41.7248 27.8769L41.6966 27.8555L41.6819 27.8467L41.6515 27.8264L41.6368 27.8177L41.6189 27.7907L41.6028 27.7793L41.5725 27.7591L41.5564 27.7478L41.5261 27.7276L41.51 27.7163L41.4797 27.6961L41.4637 27.6848L41.4315 27.6622L41.4153 27.6508L41.3806 27.6295L41.3646 27.6182L41.3299 27.5969L41.3139 27.5856L41.2791 27.5643L41.263 27.5529L41.2283 27.5316L41.2097 27.5215L41.175 27.5002L41.1563 27.4901L41.1189 27.4699L41.1002 27.4598L41.0615 27.4373L41.0429 27.4272L41.0041 27.4049L40.9854 27.3948L40.9466 27.3723L40.9264 27.3598L40.8877 27.3374L40.8675 27.3249L40.8262 27.3038L40.806 27.2912L40.7646 27.2701L40.7366 27.2552L40.7353 27.2525C40.7151 27.24 40.6939 27.2314 40.6738 27.2189C39.816 26.7781 38.8899 26.4855 37.9345 26.3534C38.2024 26.0654 38.4477 25.7572 38.6684 25.4317L38.7035 25.3795L38.7062 25.378L38.7224 25.3526L38.7438 25.3179L38.755 25.3017L38.7764 25.267L38.7877 25.251L38.8091 25.2162L38.8204 25.2002L38.8417 25.1654L38.8529 25.1493L38.8743 25.1146L38.8856 25.0985L38.9042 25.065L38.9155 25.0489L38.9342 25.0155L38.943 25.0007L38.9617 24.9673L38.9704 24.9525L38.9891 24.919L38.9979 24.9043L39.0139 24.8722L39.0227 24.8574L39.0388 24.8253L39.0476 24.8106L39.0637 24.7786L39.0724 24.7638L39.0898 24.7344L39.0987 24.7197L39.1162 24.6902L39.125 24.6755L39.1399 24.6475L39.1487 24.6327L39.1636 24.6047L39.1697 24.5914L39.1847 24.5634L39.1908 24.55L39.2057 24.522L39.2118 24.5086L39.2268 24.4807L39.2329 24.4673L39.2452 24.4407L39.2513 24.4274L39.2636 24.4008L39.2697 24.3874L39.2821 24.3608L39.2882 24.3475L39.3017 24.3172L39.3202 24.2767C39.3338 24.2464 39.3447 24.2168 39.3583 24.1857L39.3608 24.1843C39.7719 23.171 39.8683 22.0575 39.6374 20.9887L39.636 20.986L39.6332 20.9809L39.6317 20.9783L39.6303 20.9756L39.6288 20.973L39.6274 20.9704L39.6259 20.9678L39.6244 20.9651C39.6184 20.9348 39.6122 20.9051 39.6034 20.8764V20.8706L39.602 20.8679L39.6005 20.8653L39.5991 20.8627L39.6005 20.8653L39.588 20.8421C39.5789 20.8004 39.5697 20.7587 39.5566 20.7157C39.5475 20.674 39.5343 20.6311 39.5227 20.5906L39.5074 20.5622L39.5046 20.5571C39.4958 20.5285 39.4871 20.4998 39.4782 20.4713L39.4768 20.4686L39.4754 20.466L39.474 20.4634L39.4725 20.4608L39.4711 20.4581L39.4696 20.4555L39.4682 20.4529C39.1555 19.4048 38.5345 18.4753 37.6858 17.7854L37.6844 17.7828C37.6602 17.7625 37.6333 17.7436 37.6091 17.7234L37.5757 17.6981L37.5488 17.6792L37.5367 17.6691L37.5138 17.6514L37.5017 17.6413L37.4788 17.6236L37.4668 17.6135L37.4412 17.5973L37.4291 17.5872L37.4023 17.5683L37.3902 17.5582L37.3634 17.5394L37.3512 17.5293L37.3244 17.5104L37.3097 17.5016L37.2829 17.4828L37.2681 17.4739L37.2413 17.4551L37.2266 17.4463L37.1971 17.4288L37.1825 17.4201L37.153 17.4026L37.1383 17.3938L37.1089 17.3764L37.0941 17.3675L37.0647 17.35L37.05 17.3413L37.0192 17.321L37.0045 17.3123L36.9737 17.2921L36.959 17.2833L36.9256 17.2647L36.9108 17.2559L36.8774 17.2373L36.8614 17.226L36.8279 17.2073L36.8118 17.1959L36.7785 17.1773L36.7624 17.1659L36.7277 17.1446L36.7091 17.1345L36.6734 17.1123L36.6547 17.1022L36.6173 17.082L36.5987 17.0719L36.5612 17.0517L36.5346 17.0393L36.5331 17.0367L36.4771 17.0064C34.8388 16.1549 32.7574 15.8985 30.6632 16.4358L30.1185 16.5757L28.7407 11.2103L25.5477 12.0287L26.921 17.3729L24.3663 18.0318L22.9921 12.7047L19.7992 13.5232L21.1725 18.8673L14.588 20.5611L15.4642 23.9662L18.1174 23.2847C18.9955 23.0584 19.8908 23.5867 20.1172 24.4648L20.118 24.468L23.8008 38.7976C23.9509 39.3835 23.5983 39.9805 23.0126 40.132L20.6879 40.73L20.8245 44.7797L27.4012 43.0896L28.7922 48.424L31.9836 47.6028L30.6094 42.2561L33.1634 41.6013L34.5382 46.948L37.7295 46.1268L36.3502 40.7592C36.8909 40.6177 37.3563 40.4978 37.678 40.4145C40.0379 39.8075 41.9464 38.4239 43.1012 36.6986L43.1401 36.641L43.1427 36.6395L43.1615 36.6127L43.1866 36.5722L43.1991 36.552L43.2242 36.5116L43.2368 36.4914L43.2592 36.4527L43.2718 36.4325L43.2941 36.3937L43.3042 36.375L43.3266 36.3362L43.3367 36.3177L43.359 36.2789L43.3692 36.2602L43.3894 36.2228L43.3995 36.2041L43.4197 36.1667L43.4298 36.148L43.4511 36.1133L43.4612 36.0947L43.4826 36.06L43.4927 36.0413L43.5113 36.0079L43.5214 35.9892L43.54 35.9559L43.5502 35.9372L43.5688 35.9039L43.5762 35.8866L43.5949 35.8531L43.6022 35.8358L43.6183 35.8038L43.627 35.7892L43.6431 35.7571L43.6519 35.7424L43.668 35.7103L43.6768 35.6957L43.6928 35.6636L43.7017 35.6489L43.7177 35.6169L43.7265 35.6021L43.7426 35.5702L43.7514 35.5554L43.765 35.5251L43.7738 35.5104L43.7872 35.48L43.7934 35.4667L43.808 35.4322L43.8283 35.3883C43.843 35.3538 43.8586 35.3216 43.8712 35.2885L43.8724 35.2846C44.3344 34.1447 44.443 32.8925 44.1842 31.69L44.1829 31.6874L44.1815 31.6848L44.18 31.6823L44.1786 31.6796L44.1771 31.677L44.1757 31.6745L44.1742 31.6719L44.1727 31.6692C44.1652 31.6367 44.1578 31.6041 44.1502 31.5714V31.5649L44.1487 31.5623L44.1473 31.5597L44.1458 31.5572L44.1444 31.5545L44.143 31.5519L44.1415 31.5494L44.1401 31.5468L44.1386 31.5441L44.1372 31.5416L44.1357 31.539L44.1343 31.5364L44.1328 31.5338L44.1313 31.5312L44.1258 31.5211C44.1138 31.4742 44.1045 31.4259 44.09 31.3803C44.0836 31.3353 44.0787 31.2915 44.0764 31.2475ZM25.3168 21.6614C25.8615 21.5216 28.1138 20.956 28.8564 20.7629C30.037 20.4607 31.2006 20.578 32.109 21.0155L32.1393 21.0291L32.1527 21.0352L32.1714 21.0453L32.1807 21.0503L32.1994 21.0604L32.2087 21.0654L32.2274 21.0755L32.2367 21.0804L32.2553 21.0905L32.2646 21.0955L32.2833 21.1056L32.2926 21.1106L32.3112 21.1207L32.3206 21.1256L32.3392 21.1357L32.3486 21.1407L32.3672 21.1508L32.3766 21.1558L32.3952 21.1659L32.4046 21.1708L32.4206 21.1822L32.4299 21.1872L32.446 21.1984L32.4553 21.2034L32.4713 21.2147L32.4807 21.2196L32.4954 21.2284L32.5048 21.2333L32.5195 21.2421L32.5288 21.247L32.5435 21.2559L32.5528 21.2608L32.5676 21.2696L32.5769 21.2746L32.5916 21.2833L32.5983 21.2896L32.6131 21.2984L32.6184 21.3022L32.6332 21.3109L32.6385 21.3147L32.6532 21.3234L32.6587 21.3272L32.6733 21.336L32.6788 21.3398L32.6908 21.3499L32.6963 21.3537L32.711 21.3624L32.7312 21.375C32.7458 21.3837 32.7594 21.3964 32.774 21.4053C33.2391 21.7563 33.5807 22.2458 33.75 22.8033L33.7541 22.8111C33.7584 22.8255 33.7642 22.8423 33.7684 22.8567L33.7699 22.8593L33.7784 22.8747C33.7843 22.8982 33.7915 22.9177 33.7974 22.9411C33.8039 22.965 33.8082 22.9895 33.8101 23.0142L33.8185 23.0297L33.82 23.0323C33.8222 23.0483 33.8262 23.0641 33.8319 23.0792L33.8361 23.0869C33.9556 23.6567 33.8918 24.2497 33.6542 24.7812L33.6332 24.8291L33.6222 24.8518L33.6134 24.8665L33.611 24.8745L33.6048 24.8878L33.6025 24.8958L33.5937 24.9106L33.5913 24.9186L33.5825 24.9333L33.5801 24.9413L33.5713 24.956L33.5689 24.9641L33.5601 24.9788L33.5577 24.9868L33.549 25.0015L33.5465 25.0095L33.5377 25.0243L33.5327 25.0336L33.524 25.0483L33.519 25.0577L33.5103 25.0724L33.5052 25.0818L33.4965 25.0965L33.4915 25.1058L33.4802 25.1219L33.4752 25.1312L33.4639 25.1473L33.4588 25.1566L33.4476 25.1727L33.4426 25.182L33.4313 25.1981L33.4263 25.2075L33.415 25.2235L33.41 25.2328L33.3988 25.2489L33.3938 25.2582L33.3824 25.2743L33.3775 25.2837L33.3662 25.2997L33.3612 25.309L33.3473 25.3265L33.3423 25.3359L33.3283 25.3534L33.3233 25.3627L33.3093 25.3802L33.3044 25.3895L33.2904 25.407L33.2803 25.4192L33.2615 25.446C32.6743 26.2687 31.7122 26.9333 30.5314 27.2355C29.7873 27.4262 27.5405 28.0152 26.9964 28.155L25.3168 21.6614ZM37.7967 32.6471L37.8051 32.6626L37.8065 32.6652C37.8096 32.6835 37.8141 32.6979 37.8172 32.7157L37.8187 32.7184L37.8201 32.7209L37.8216 32.7235L37.8229 32.7261C37.9489 33.3546 37.8584 34.0072 37.5662 34.5776L37.5376 34.6296L37.5238 34.6537L37.5137 34.6724L37.5088 34.6817L37.4999 34.6964L37.495 34.7057L37.4862 34.7204L37.4813 34.7297L37.4699 34.7459L37.4649 34.7552L37.4537 34.7712L37.4487 34.7806L37.4374 34.7966L37.4324 34.8059L37.4211 34.822L37.4161 34.8313L37.4049 34.8473L37.3999 34.8567L37.3885 34.8727L37.3836 34.882L37.3723 34.8982L37.3673 34.9075L37.3561 34.9236L37.351 34.9329L37.3397 34.9489L37.3348 34.9583L37.3208 34.9758L37.3158 34.9851L37.3018 35.0026L37.2969 35.0119L37.2843 35.0321L37.2794 35.0415L37.2668 35.0617L37.2619 35.071L37.2493 35.0912L37.2418 35.1019L37.2292 35.122L37.2216 35.1327L37.2065 35.1542L37.1989 35.1649L37.1838 35.1863L37.1762 35.197L37.1611 35.2185L37.1535 35.2292L37.1383 35.2505L37.1308 35.2612L37.1156 35.2827L37.1029 35.2962L37.0788 35.3259C36.3657 36.2365 35.2156 36.9856 33.8187 37.3441C32.9377 37.5716 30.2759 38.2678 29.6282 38.4331L27.816 31.3818C28.4626 31.2138 31.1316 30.5438 32.0125 30.3163C33.4095 29.9578 34.781 30.0594 35.8411 30.5122L35.8756 30.5269L35.8929 30.5343L35.9182 30.5444L35.9302 30.548L35.9527 30.5591L35.9647 30.5626L35.9872 30.5736L35.9992 30.5771L36.0217 30.5882L36.031 30.5932L36.0535 30.6044L36.0629 30.6093L36.0855 30.6204L36.0948 30.6254L36.1174 30.6364L36.1267 30.6414L36.1454 30.6515L36.1547 30.6565L36.1734 30.6666L36.1827 30.6715L36.2013 30.6816L36.2106 30.6866L36.2293 30.6967L36.2386 30.7017L36.2573 30.7118L36.2666 30.7167L36.2853 30.7268L36.2946 30.7318L36.3133 30.7419L36.3226 30.747L36.3413 30.7571L36.3505 30.762L36.3692 30.7721L36.3785 30.7771L36.3946 30.7884L36.4039 30.7933L36.42 30.8046L36.4293 30.8097L36.4454 30.8209L36.4547 30.8259L36.4707 30.8372L36.4801 30.8421L36.4961 30.8535L36.5054 30.8585L36.5201 30.8672L36.5294 30.8722L36.5456 30.8835L36.567 30.8986C36.583 30.91 36.6017 30.92 36.6176 30.9313C37.1479 31.2909 37.5413 31.819 37.7343 32.4301L37.7398 32.4402C37.7457 32.4571 37.7499 32.4714 37.7558 32.4883L37.7571 32.4908L37.7656 32.5063C37.7716 32.5297 37.7775 32.5531 37.7848 32.5793C37.798 32.585 37.8 32.6138 37.7958 32.6494L37.7967 32.6471Z" fill="white"/>
</svg>
