<svg width="60" height="60" viewBox="0 0 60 60" fill="none" xmlns="http://www.w3.org/2000/svg">
<path d="M59.1023 37.2561C55.095 53.3294 38.8145 63.1083 22.7402 59.1025C6.67149 55.0956 -3.11054 38.8161 0.898657 22.7466C4.90317 6.67148 21.1837 -3.10841 37.2533 0.89748C53.3286 4.90431 63.1087 21.1857 59.1023 37.2561Z" fill="#F7931A"/>
<path d="M42.2785 26.1952C42.867 22.116 39.8769 19.9231 35.7874 18.4602L37.1137 12.9344L33.8755 12.0961L32.5843 17.4763C31.733 17.256 30.8587 17.0481 29.9908 16.8421L31.2903 11.4265L28.054 10.5882L26.7278 16.1121C26.0222 15.9454 25.3305 15.7806 24.66 15.6072L24.6637 15.59L20.1979 14.4317L19.3356 18.0243C19.3356 18.0243 21.7382 18.5962 21.6874 18.6317C22.9999 18.9718 23.2369 19.8733 23.1972 20.5879L21.6856 26.8831C21.7769 26.907 21.894 26.9425 22.0222 26.9951C21.9143 26.9674 21.799 26.9367 21.6801 26.907L19.5625 35.7255C19.402 36.1394 18.9953 36.7592 18.0794 36.5245C18.1108 36.5734 15.7248 35.9133 15.7248 35.9133L14.1172 39.7655L18.3312 40.8576C19.1152 41.0617 19.8834 41.2753 20.6397 41.4765L19.2996 47.0655L22.5341 47.9038L23.8604 42.3732C24.7439 42.6232 25.6016 42.8522 26.4409 43.0706L25.1184 48.5735L28.3565 49.4117L29.6966 43.8342C35.2175 44.9196 39.3705 44.4818 41.1183 39.2951C42.5266 35.1191 41.0482 32.7087 38.143 31.1366C40.2606 30.627 41.8534 29.1813 42.2785 26.1952ZM34.8808 36.971C33.8801 41.1469 27.1096 38.8908 24.9136 38.3237L26.6927 30.9192C28.8878 31.4892 35.9267 32.6158 34.8808 36.971ZM35.8824 26.1349C34.9694 29.9343 29.3332 28.0039 27.5062 27.5307L29.1183 20.815C30.9454 21.2883 36.8333 22.1715 35.8824 26.1349Z" fill="white"/>
</svg>
