<svg width="120" height="70" viewBox="0 0 120 70" fill="none" xmlns="http://www.w3.org/2000/svg">
<rect x="0.5" y="0.5" width="119" height="69" rx="4.5" fill="#F9F9F9" stroke="#F3F3F3"/>
<g opacity="0.95">
<path d="M64.3623 52.9998C74.1059 53.0475 83 44.9763 83 35.156C83 24.4186 74.1059 16.9968 64.3623 17H55.9765C46.1163 16.9968 38 24.4205 38 35.156C38 44.9782 46.1163 53.0475 55.9765 52.9998H64.3623Z" fill="#115EAF"/>
<path d="M59.7113 44.6839V25.3211C63.6034 26.8142 66.3662 30.5823 66.3737 35.0022C66.3662 39.4215 63.6034 43.1877 59.7113 44.6839ZM45.6279 35.0016C45.6367 30.5842 48.3957 26.8186 52.2852 25.3211V44.6788C48.3957 43.1832 45.6367 39.4196 45.6279 35.0016ZM55.9992 18.6364C46.9612 18.6395 39.6381 25.9635 39.6362 35.0016C39.6381 44.0384 46.9613 51.3611 55.9986 51.3636C65.0379 51.3611 72.3622 44.0384 72.3635 35.0016C72.3629 25.9635 65.0379 18.6395 55.9992 18.6364Z" fill="white"/>
</g>
</svg>
