<svg width="120" height="70" viewBox="0 0 120 70" fill="none" xmlns="http://www.w3.org/2000/svg">
<rect x="0.5" y="0.5" width="119" height="69" rx="4.5" fill="#F9F9F9" stroke="#F3F3F3"/>
<g opacity="0.95">
<path d="M62.4613 28.0452C58.7789 28.0452 55.7899 30.9226 55.7899 34.4741C55.7899 38.2503 58.6496 41.0711 62.4613 41.0711C66.1809 41.0711 69.1149 38.2131 69.1149 34.5468C69.1149 30.9064 66.1987 28.0452 62.4613 28.0452Z" fill="#F48120"/>
<path d="M24.5871 28.2796H21V40.7899H24.5677C26.4606 40.7899 27.8314 40.3405 29.0325 39.3463C30.4566 38.163 31.3005 36.38 31.3005 34.5404C31.3005 30.8483 28.5411 28.2796 24.5871 28.2796ZM27.4402 37.6748C26.6675 38.3699 25.6766 38.6706 24.0989 38.6706H23.4442V30.3972H24.0989C25.6782 30.3972 26.6304 30.6785 27.4402 31.4092C28.2841 32.1609 28.7868 33.3232 28.7868 34.521C28.7868 35.7253 28.2841 36.9296 27.4402 37.6748Z" fill="#001722"/>
<path d="M34.8655 28.2796H32.4261V40.7899H34.8655V28.2796Z" fill="#001722"/>
<path d="M40.8339 33.0774C39.3693 32.5359 38.9377 32.177 38.9377 31.5029C38.9377 30.7157 39.7039 30.1159 40.7563 30.1159C41.4886 30.1159 42.0883 30.4166 42.7284 31.1263L44.0022 29.4613C42.9515 28.5382 41.6955 28.071 40.3263 28.071C38.1133 28.071 36.424 29.61 36.424 31.6533C36.424 33.3813 37.2128 34.2607 39.5002 35.0867C40.4572 35.423 40.9454 35.6493 41.1879 35.7996C41.6777 36.1197 41.9218 36.5675 41.9218 37.0929C41.9218 38.108 41.1135 38.8565 40.024 38.8565C38.8601 38.8565 37.9225 38.2778 37.3616 37.1882L35.7887 38.7094C36.9106 40.3582 38.262 41.0905 40.121 41.0905C42.6524 41.0905 44.4338 39.4013 44.4338 36.9813C44.4322 34.9946 43.6111 34.0942 40.8339 33.0774Z" fill="#001722"/>
<path d="M45.2004 34.5421C45.2004 38.2213 48.0908 41.0728 51.8039 41.0728C52.8547 41.0728 53.7551 40.8675 54.8656 40.3421V37.4712C53.8876 38.4476 53.0244 38.8388 51.9187 38.8388C49.46 38.8388 47.7141 37.0558 47.7141 34.5243C47.7141 32.127 49.5149 30.2292 51.8039 30.2292C52.9662 30.2292 53.8488 30.643 54.8656 31.6372V28.7662C53.7955 28.2231 52.9113 28 51.8638 28C48.1652 27.9984 45.2004 30.9065 45.2004 34.5421Z" fill="#001722"/>
<path d="M74.6344 36.6823L71.293 28.2796H68.6306L73.9409 41.11H75.2535L80.656 28.2796H78.0129L74.6344 36.6823Z" fill="#001722"/>
<path d="M81.7679 40.7899H88.6883V38.6706H84.2057V35.2921H88.5185V33.176H84.2057V30.3989H88.6883V28.2796H81.7679V40.7899Z" fill="#001722"/>
<path d="M98.346 31.9717C98.346 29.6278 96.7343 28.2796 93.9199 28.2796H90.299V40.7899H92.7399V35.7625H93.0584L96.4336 40.7899H99.4355L95.4944 35.5184C97.3324 35.145 98.346 33.8873 98.346 31.9717ZM93.4495 34.036H92.7399V30.2453H93.49C95.0111 30.2453 95.8371 30.8854 95.8371 32.1011C95.8355 33.3603 95.0095 34.036 93.4495 34.036Z" fill="#001722"/>
</g>
</svg>
