<svg width="60" height="60" viewBox="0 0 60 60" fill="none" xmlns="http://www.w3.org/2000/svg">
<path d="M59.1023 37.2561C55.095 53.3294 38.8145 63.1083 22.7402 59.1025C6.67149 55.0956 -3.11054 38.8161 0.898657 22.7466C4.90317 6.67148 21.1837 -3.10841 37.2533 0.89748C53.3286 4.90431 63.1087 21.1857 59.1023 37.2561Z" fill="#ECECEC"/>
<g clip-path="url(#clip0)">
<path d="M29.4959 8L29.223 8.93405V36.0381L29.4959 36.3124L41.9922 28.8756L29.4959 8Z" fill="#343434"/>
<path d="M29.4963 8L17 28.8756L29.4963 36.3125V23.157V8Z" fill="#8C8C8C"/>
<path d="M29.4963 38.694L29.3425 38.8827V48.5378L29.4963 48.9902L42.0001 31.2609L29.4963 38.694Z" fill="#3C3C3B"/>
<path d="M29.4963 48.9908V38.6946L17 31.2615L29.4963 48.9908Z" fill="#8C8C8C"/>
<path d="M29.497 36.3128L41.9931 28.876L29.497 23.1575V36.3128Z" fill="#141414"/>
<path d="M17.0009 28.8762L29.497 36.3129V23.1576L17.0009 28.8762Z" fill="#393939"/>
</g>
<defs>
<clipPath id="clip0">
<rect width="25" height="41" fill="white" transform="translate(17 8)"/>
</clipPath>
</defs>
</svg>
