<svg width="60" height="60" viewBox="0 0 60 60" fill="none" xmlns="http://www.w3.org/2000/svg">
<path d="M59.9996 29.9998C59.9996 46.5684 46.5684 60 30 60C13.4314 60 0 46.5684 0 29.9998C0 13.4314 13.4314 0 30 0C46.5683 0 59.9996 13.4314 59.9996 29.9998Z" fill="#BEBEBE"/>
<path d="M53.6304 30.0003C53.6304 43.0503 43.0508 53.6308 30.0001 53.6308C16.9495 53.6308 6.36914 43.0503 6.36914 30.0003C6.36914 16.9492 16.9495 6.36938 30.0001 6.36938C43.0509 6.36938 53.6304 16.9491 53.6304 30.0003Z" fill="#BEBEBE"/>
<path d="M28.2482 38.0145L30.1968 30.6772L34.8101 28.9918L35.9576 24.6797L35.9184 24.5727L31.3772 26.2318L34.6492 13.9116H25.3699L21.091 29.9897L17.5184 31.2948L16.3379 35.7403L19.9078 34.4363L17.3859 43.9118H42.0817L43.6649 38.0145H28.2482Z" fill="white"/>
</svg>
