<svg width="120" height="70" viewBox="0 0 120 70" fill="none" xmlns="http://www.w3.org/2000/svg">
<rect x="0.5" y="0.5" width="119" height="69" rx="4.5" fill="#F9F9F9" stroke="#F3F3F3"/>
<g opacity="0.95">
<path d="M66.9348 21.636H52.0627V48.3629H66.9348V21.636Z" fill="#FB8037"/>
<path d="M53.0063 35.0016C53.0003 29.7849 55.3947 24.8562 59.4985 21.6358C52.1181 15.8357 41.4335 17.116 35.6334 24.4976C29.8333 31.878 31.1148 42.5626 38.4952 48.3627C44.6587 53.2065 53.3362 53.2065 59.4997 48.3627C55.3959 45.1435 53.0015 40.216 53.0063 35.0016Z" fill="#F32F44"/>
<path d="M86.9993 35.0017C86.9993 44.3892 79.3894 51.998 70.003 51.998C66.1933 51.998 62.4935 50.7177 59.499 48.3628C66.8795 42.5615 68.1597 31.8769 62.3608 24.4977C61.524 23.4326 60.5641 22.4727 59.499 21.6359C66.8783 15.8334 77.5628 17.1137 83.3653 24.4929C85.7202 27.4874 87.0005 31.1872 87.0005 34.997V35.0017H86.9993Z" fill="#FDAA31"/>
</g>
</svg>
