<svg width="100" height="100" viewBox="0 0 100 100" fill="none" xmlns="http://www.w3.org/2000/svg">
<circle cx="50" cy="50" r="50" fill="url(#paint0_linear)"/>
<ellipse cx="50.0015" cy="49.9998" rx="43.75" ry="43.75" fill="url(#paint1_linear)"/>
<path d="M39.8858 45.8565C39.8858 47.2078 39.6317 48.352 39.1236 49.2892C38.6155 50.2046 37.9307 50.9456 37.0692 51.5123C36.2077 52.0789 35.2136 52.493 34.0869 52.7546C32.9603 53.0161 31.7895 53.1469 30.5745 53.1469H27.7579V61.8757H22.0917V38.7296H30.7071C31.9883 38.7296 33.1812 38.8603 34.2858 39.1219C35.4124 39.3616 36.3844 39.7648 37.2017 40.3315C38.0412 40.8764 38.6929 41.6065 39.1568 42.5219C39.6428 43.4155 39.8858 44.527 39.8858 45.8565ZM34.2195 45.8892C34.2195 45.3443 34.109 44.8975 33.8881 44.5488C33.6672 44.2001 33.369 43.9277 32.9934 43.7315C32.6179 43.5353 32.1871 43.4046 31.7011 43.3392C31.2372 43.2738 30.7512 43.2411 30.2432 43.2411H27.7579V48.7007H30.1437C30.6739 48.7007 31.182 48.6571 31.668 48.57C32.154 48.4828 32.5848 48.3302 32.9603 48.1123C33.3579 47.8943 33.6672 47.611 33.8881 47.2623C34.109 46.8918 34.2195 46.4341 34.2195 45.8892Z" fill="url(#paint2_linear)"/>
<path d="M43.103 61.8757V38.7296H48.8024V57.0046H57.8817V61.8757H43.103Z" fill="url(#paint3_linear)"/>
<path d="M74.5945 44.745C74.1085 44.1347 73.4679 43.6552 72.6726 43.3065C71.8994 42.936 71.1483 42.7507 70.4193 42.7507C70.0438 42.7507 69.6572 42.7834 69.2596 42.8488C68.884 42.9142 68.5416 43.045 68.2324 43.2411C67.9231 43.4155 67.658 43.6552 67.4371 43.9603C67.2383 44.2437 67.1389 44.6142 67.1389 45.0719C67.1389 45.4642 67.2162 45.7911 67.3708 46.0527C67.5475 46.3142 67.7905 46.543 68.0998 46.7392C68.4312 46.9353 68.8178 47.1206 69.2596 47.295C69.7014 47.4475 70.1984 47.611 70.7507 47.7853C71.546 48.0469 72.3744 48.3411 73.2359 48.668C74.0975 48.9732 74.8817 49.3873 75.5886 49.9103C76.2955 50.4334 76.8809 51.0873 77.3448 51.8719C77.8087 52.6347 78.0406 53.5937 78.0406 54.7488C78.0406 56.0783 77.7866 57.2334 77.2785 58.2142C76.7925 59.1732 76.1298 59.9687 75.2904 60.6007C74.4509 61.2328 73.49 61.7014 72.4075 62.0065C71.3251 62.3116 70.2095 62.4642 69.0608 62.4642C67.3819 62.4642 65.7582 62.1809 64.1898 61.6142C62.6213 61.0257 61.318 60.1975 60.2797 59.1296L63.9909 55.4027C64.5653 56.1001 65.3164 56.6885 66.2442 57.168C67.1941 57.6257 68.133 57.8546 69.0608 57.8546C69.4805 57.8546 69.8892 57.811 70.2868 57.7238C70.6844 57.6366 71.0268 57.495 71.314 57.2988C71.6233 57.1027 71.8663 56.8411 72.043 56.5142C72.2197 56.1873 72.3081 55.795 72.3081 55.3373C72.3081 54.9014 72.1977 54.5309 71.9767 54.2257C71.7558 53.9206 71.4355 53.6482 71.0158 53.4084C70.6182 53.1469 70.1101 52.918 69.4915 52.7219C68.8951 52.5039 68.2103 52.2751 67.4371 52.0353C66.686 51.7956 65.946 51.5123 65.217 51.1853C64.5101 50.8584 63.8694 50.4443 63.2951 49.943C62.7428 49.42 62.29 48.7988 61.9365 48.0796C61.6051 47.3385 61.4395 46.445 61.4395 45.3988C61.4395 44.1129 61.7046 43.0123 62.2347 42.0969C62.7649 41.1815 63.4608 40.4296 64.3223 39.8411C65.1838 39.2527 66.1558 38.8277 67.2383 38.5661C68.3207 38.2828 69.4142 38.1411 70.5188 38.1411C71.8442 38.1411 73.1917 38.3809 74.5614 38.8603C75.9531 39.3398 77.1681 40.0482 78.2063 40.9853L74.5945 44.745Z" fill="url(#paint4_linear)"/>
<path d="M39.5608 49.5319L39.5632 49.5275C40.1202 48.5001 40.3858 47.2692 40.3858 45.8565C40.3858 44.4714 40.1333 43.2742 39.5995 42.2894C39.0981 41.3028 38.3906 40.5087 37.4804 39.9163C36.6033 39.3096 35.5716 38.885 34.3954 38.634C33.2502 38.3634 32.0201 38.2296 30.7071 38.2296H22.0917H21.5917V38.7296V61.8757V62.3757H22.0917H27.7579H28.2579V61.8757V53.6469H30.5745C31.8256 53.6469 33.0345 53.5122 34.2 53.2416C35.3773 52.9683 36.4274 52.5329 37.344 51.93C38.274 51.3183 39.0141 50.5167 39.5608 49.5319ZM31.6314 43.8343L31.6314 43.8343L31.6345 43.8347C32.0718 43.8936 32.4453 44.0093 32.762 44.1747C33.0617 44.3312 33.2932 44.544 33.4657 44.8164C33.6221 45.0632 33.7195 45.4094 33.7195 45.8892C33.7195 46.364 33.6241 46.726 33.4621 47.0005C33.291 47.2683 33.0486 47.4937 32.72 47.6738L32.7199 47.6737L32.7093 47.6798C32.3905 47.8648 32.0162 47.9995 31.5797 48.0778C31.1249 48.1594 30.6465 48.2007 30.1437 48.2007H28.2579V43.7411H30.2432C30.7298 43.7411 31.1924 43.7724 31.6314 43.8343ZM42.603 61.8757V62.3757H43.103H57.8817H58.3817V61.8757V57.0046V56.5046H57.8817H49.3024V38.7296V38.2296H48.8024H43.103H42.603V38.7296V61.8757ZM74.2034 45.0564L74.5593 45.5033L74.9551 45.0914L78.5669 41.3317L78.9242 40.9598L78.5413 40.6142C77.4508 39.6298 76.1769 38.8883 74.7254 38.388C73.3081 37.892 71.9052 37.6411 70.5188 37.6411C69.3725 37.6411 68.238 37.788 67.1163 38.0812C65.9808 38.3561 64.9539 38.8042 64.0403 39.4282C63.1162 40.0595 62.3692 40.8672 61.8021 41.8463C61.2192 42.8527 60.9395 44.0438 60.9395 45.3988C60.9395 46.4958 61.113 47.4627 61.4801 48.2837L61.4838 48.292L61.4878 48.3001C61.866 49.0698 62.3535 49.7399 62.9513 50.3061L62.9586 50.3131L62.9663 50.3197C63.5772 50.8529 64.258 51.2927 65.0071 51.6392L65.0071 51.6392L65.0124 51.6416C65.7583 51.9761 66.5159 52.2661 67.2851 52.5117L67.289 52.5129C68.0563 52.7508 68.733 52.977 69.3199 53.1915L69.3301 53.1952L69.3404 53.1985C69.9299 53.3854 70.3927 53.5971 70.741 53.8262L70.7542 53.8348L70.7678 53.8426C71.1426 54.0567 71.4026 54.2853 71.5717 54.5189C71.7216 54.7259 71.8081 54.9895 71.8081 55.3373C71.8081 55.7309 71.7323 56.0376 71.6032 56.2764C71.4665 56.5293 71.2822 56.7269 71.0462 56.8766L71.039 56.8811L71.032 56.8859C70.806 57.0403 70.5253 57.1596 70.1797 57.2354C69.8183 57.3146 69.4456 57.3546 69.0608 57.3546C68.2198 57.3546 67.3568 57.1481 66.4676 56.7206C65.5935 56.2681 64.9008 55.7209 64.3769 55.0848L64.0261 54.6588L63.6366 55.0498L59.9254 58.7768L59.5783 59.1254L59.9212 59.4781C61.0169 60.6052 62.3853 61.4712 64.0141 62.0823L64.0141 62.0824L64.0199 62.0844C65.6432 62.6709 67.3243 62.9642 69.0608 62.9642C70.2544 62.9642 71.4156 62.8056 72.5432 62.4877C73.681 62.167 74.6988 61.672 75.5911 61.0002C76.4924 60.3215 77.2039 59.4668 77.7235 58.4423C78.2745 57.3778 78.5406 56.1413 78.5406 54.7488C78.5406 53.5297 78.2961 52.4753 77.7736 51.6148C77.2772 50.7759 76.6478 50.0721 75.886 49.5084C75.1392 48.9558 74.3125 48.5194 73.4082 48.1986C72.5421 47.8701 71.7084 47.5739 70.9069 47.3104L70.9069 47.3103L70.9012 47.3085C70.3566 47.1366 69.8673 46.9757 69.4331 46.8259C69.0179 46.6616 68.6615 46.4901 68.3613 46.3129C68.1099 46.1525 67.9249 45.9753 67.794 45.7857C67.7004 45.6214 67.6389 45.392 67.6389 45.0719C67.6389 44.6863 67.7221 44.4262 67.8444 44.2504C68.0252 44.0016 68.2363 43.8129 68.4779 43.6767L68.4892 43.6703L68.5002 43.6633C68.7511 43.5042 69.0305 43.3965 69.3431 43.3418C69.715 43.2808 70.0736 43.2507 70.4193 43.2507C71.0615 43.2507 71.739 43.4136 72.4565 43.7574L72.4641 43.761L72.4718 43.7644C73.2012 44.0843 73.7735 44.5167 74.2034 45.0564Z" stroke="white" stroke-opacity="0.25"/>
<defs>
<linearGradient id="paint0_linear" x1="15.6476" y1="15.438" x2="85.1692" y2="81.7583" gradientUnits="userSpaceOnUse">
<stop stop-color="#4DEAB5"/>
<stop offset="1" stop-color="#3EDBA7"/>
</linearGradient>
<linearGradient id="paint1_linear" x1="18.4096" y1="11.8056" x2="86.0462" y2="81.2805" gradientUnits="userSpaceOnUse">
<stop stop-color="#F9F9F9"/>
<stop offset="1" stop-color="#F2F2F2"/>
</linearGradient>
<linearGradient id="paint2_linear" x1="26.2337" y1="38.1411" x2="81.1282" y2="67.8156" gradientUnits="userSpaceOnUse">
<stop stop-color="#00e4ff"/>
<stop offset="1" stop-color="#2FE3A7"/>
</linearGradient>
<linearGradient id="paint3_linear" x1="26.2337" y1="38.1411" x2="81.1282" y2="67.8156" gradientUnits="userSpaceOnUse">
<stop stop-color="#00e4ff"/>
<stop offset="1" stop-color="#2FE3A7"/>
</linearGradient>
<linearGradient id="paint4_linear" x1="26.2337" y1="38.1411" x2="81.1282" y2="67.8156" gradientUnits="userSpaceOnUse">
<stop stop-color="#00e4ff"/>
<stop offset="1" stop-color="#2FE3A7"/>
</linearGradient>
</defs>
</svg>
