<svg width="120" height="70" viewBox="0 0 120 70" fill="none" xmlns="http://www.w3.org/2000/svg">
<rect x="0.5" y="0.5" width="119" height="69" rx="4.5" fill="#F9F9F9" stroke="#F3F3F3"/>
<path d="M54.5528 45.9539H48.4268L52.2558 22.4189H58.3838L54.5528 45.9539Z" fill="#257CBD"/>
<path d="M43.272 22.4189L37.431 38.6059L36.739 35.1209V35.1219L34.677 24.5389C34.677 24.5389 34.429 22.4199 31.771 22.4199H22.114L22.001 22.8189C22.001 22.8189 24.954 23.4319 28.411 25.5089L33.734 45.9549H40.118L49.867 22.4199H43.272V22.4189Z" fill="#257CBD"/>
<path d="M91.4679 45.9539H97.0939L92.1889 22.4189H87.2629C84.9889 22.4189 84.4339 24.1719 84.4339 24.1719L75.2959 45.9529H81.6829L82.9599 42.4579H90.7489L91.4679 45.9539ZM84.7259 37.6299L87.9449 28.8209L89.7569 37.6299H84.7259Z" fill="#257CBD"/>
<path d="M75.774 28.079L76.649 23.025C76.649 23.025 73.95 22 71.138 22C68.096 22 60.875 23.329 60.875 29.791C60.875 35.871 69.352 35.947 69.352 39.139C69.352 42.332 61.75 41.762 59.24 39.748L58.329 45.03C58.329 45.03 61.064 46.36 65.246 46.36C69.426 46.36 75.736 44.195 75.736 38.303C75.736 32.184 67.184 31.613 67.184 28.953C67.185 26.292 73.153 26.634 75.774 28.079Z" fill="#257CBD"/>
<path d="M36.738 35.122L34.676 24.539C34.676 24.539 34.428 22.42 31.77 22.42H22.113L22 22.819C22 22.819 26.643 23.781 31.094 27.384C35.353 30.829 36.738 35.122 36.738 35.122Z" fill="#F9A533"/>
</svg>
