<?xml version="1.0" encoding="utf-8"?>
<!-- Generator: Adobe Illustrator 22.0.1, SVG Export Plug-In . SVG Version: 6.00 Build 0)  -->
<svg version="1.1" id="Layer_1" xmlns="http://www.w3.org/2000/svg" xmlns:xlink="http://www.w3.org/1999/xlink" x="0px" y="0px"
	 viewBox="0 0 10 10" style="enable-background:new 0 0 10 10;" xml:space="preserve">
<style type="text/css">
	.st0{fill:#FFFFFF;}
</style>
<path id="Shape" class="st0" d="M8.1,2.8H6.6V2.5C6.6,1.7,5.9,1,5,1S3.4,1.7,3.4,2.5v0.3H1.9C1.4,2.8,1,3.2,1,3.8v4.4
	C1,8.6,1.4,9,1.9,9h6.2C8.6,9,9,8.6,9,8.1V3.8C9,3.2,8.6,2.8,8.1,2.8z M6.9,8.4H3.1C3,7.6,2.4,7,1.6,6.9V5C2.4,4.8,3,4.2,3.1,3.4
	h3.8C7,4.2,7.6,4.8,8.4,5v1.9C7.6,7,7,7.6,6.9,8.4z M8.4,3.8v0.6C8,4.2,7.6,3.9,7.5,3.4h0.6C8.3,3.4,8.4,3.6,8.4,3.8z M4.1,2.5
	C4.1,2,4.5,1.6,5,1.6S5.9,2,5.9,2.5v0.3H4.1V2.5z M1.9,3.4h0.6C2.4,3.9,2,4.2,1.6,4.3V3.8C1.6,3.6,1.7,3.4,1.9,3.4z M1.6,8.1V7.5
	C2,7.6,2.4,8,2.5,8.4H1.9C1.7,8.4,1.6,8.3,1.6,8.1z M8.1,8.4H7.5C7.6,8,8,7.6,8.4,7.5v0.6C8.4,8.3,8.3,8.4,8.1,8.4z"/>
</svg>
