<svg xmlns="http://www.w3.org/2000/svg" xmlns:xlink="http://www.w3.org/1999/xlink" viewBox="0 0 537.04 152.51"><defs><style>.cls-1,.cls-11,.cls-2,.cls-3,.cls-4,.cls-5,.cls-6,.cls-7,.cls-8,.cls-9{fill-rule:evenodd;}.cls-1{fill:url(#GradientFill_1);}.cls-2{fill:url(#GradientFill_1-2);}.cls-3{fill:url(#GradientFill_2);}.cls-4{fill:url(#GradientFill_3);}.cls-5{fill:url(#GradientFill_1-3);}.cls-6{fill:url(#GradientFill_2-2);}.cls-7{fill:url(#GradientFill_4);}.cls-8{fill:url(#linear-gradient);}.cls-9{fill:url(#New_Gradient_Swatch_copy_5);}.cls-10{fill:url(#linear-gradient-2);}.cls-11{fill:url(#linear-gradient-3);}.cls-12{fill:url(#GradientFill_7);}</style><radialGradient id="GradientFill_1" cx="367.91" cy="25.23" r="409.91" gradientTransform="translate(0 17.9) scale(1 0.29)" gradientUnits="userSpaceOnUse"><stop offset="0" stop-color="#76c4e3"/><stop offset="0.34" stop-color="#66b2da"/><stop offset="1" stop-color="#3f84c5"/></radialGradient><radialGradient id="GradientFill_1-2" cx="69" cy="97.91" r="50.57" gradientTransform="matrix(1, 0.08, -0.06, 0.79, 6.09, 15.61)" xlink:href="#GradientFill_1"/><radialGradient id="GradientFill_2" cx="68.3" cy="64.94" r="107.93" gradientTransform="translate(1.53 32.92) rotate(2.88) scale(1 0.44)" gradientUnits="userSpaceOnUse"><stop offset="0" stop-color="#76c4e3"/><stop offset="0.56" stop-color="#489fc5"/><stop offset="1" stop-color="#3f73ae"/></radialGradient><radialGradient id="GradientFill_3" cx="15.34" cy="53.51" r="38.06" gradientTransform="translate(-31.75 71.94) rotate(-93.71) scale(1 0.9)" gradientUnits="userSpaceOnUse"><stop offset="0" stop-color="#76c4e3"/><stop offset="0.45" stop-color="#489fc5"/><stop offset="1" stop-color="#3f73ae"/></radialGradient><radialGradient id="GradientFill_1-3" cx="69" cy="100.98" r="50.51" gradientTransform="translate(0.33 71.23) rotate(0.65) scale(1 0.29)" xlink:href="#GradientFill_1"/><radialGradient id="GradientFill_2-2" cx="51.63" cy="52.42" r="275.86" gradientTransform="matrix(1, -0.07, 0.01, 0.18, -0.55, 46.85)" xlink:href="#GradientFill_2"/><radialGradient id="GradientFill_4" cx="11.38" cy="59.37" r="137.88" gradientTransform="matrix(0.23, -0.97, 0.41, 0.09, -15.26, 64.83)" gradientUnits="userSpaceOnUse"><stop offset="0" stop-color="#4da4c8"/><stop offset="0.35" stop-color="#489fc5"/><stop offset="1" stop-color="#3f73ae"/></radialGradient><linearGradient id="linear-gradient" x1="58.95" y1="38.47" x2="58.95" y2="67.36" gradientUnits="userSpaceOnUse"><stop offset="0" stop-color="#fcddd9"/><stop offset="1" stop-color="#d9756e"/></linearGradient><linearGradient id="New_Gradient_Swatch_copy_5" x1="58.95" y1="12.75" x2="58.95" y2="42.54" gradientUnits="userSpaceOnUse"><stop offset="0" stop-color="#fff9f8"/><stop offset="0.21" stop-color="#fef0ee"/><stop offset="0.65" stop-color="#fde2de"/><stop offset="1" stop-color="#fcddd9"/></linearGradient><linearGradient id="linear-gradient-2" x1="47.59" y1="35.18" x2="66.3" y2="73.32" gradientUnits="userSpaceOnUse"><stop offset="0" stop-color="#ffcad1"/><stop offset="1" stop-color="#cf3f3f"/></linearGradient><linearGradient id="linear-gradient-3" x1="58.95" y1="-3.91" x2="58.95" y2="41.11" gradientUnits="userSpaceOnUse"><stop offset="0" stop-color="#fff9f8"/><stop offset="0.01" stop-color="#fff8f7"/><stop offset="0.39" stop-color="#fee9de"/><stop offset="0.73" stop-color="#fddfce"/><stop offset="1" stop-color="#fddcc9"/></linearGradient><linearGradient id="GradientFill_7" x1="45.14" y1="30.46" x2="70.77" y2="82.74" gradientUnits="userSpaceOnUse"><stop offset="0" stop-color="#fddcc9"/><stop offset="1" stop-color="#cd9060"/></linearGradient></defs><title>logo</title><g id="Layer_2" data-name="Layer 2"><g id="Layer_1-2" data-name="Layer 1"><path class="cls-1" d="M200.32,55.48V21.62a1.43,1.43,0,0,1,1.42-1.42h17.65a1.43,1.43,0,0,1,1.42,1.42V89.7c0,59-82.48,54.62-82.48,0v-.29c0-15.31,7-29,20.4-36.69,10.76-6.18,25-7.7,36.05-1.41a27.79,27.79,0,0,1,5.54,4.14ZM179.72,113c12.66,0,20.89-11.13,20.89-23.23v-.29c0-12.17-8.17-23.22-20.89-23.22C166.62,66.22,159,77,159,89.44v.29c0,12.21,7.94,23.23,20.75,23.23Zm67.86-15.68C249.74,107.5,257.25,114,268,114c8.27,0,14-3.1,19.86-8.79a1.42,1.42,0,0,1,1.94,0l10.36,9.19a1.42,1.42,0,0,1,.15,2c-8.43,10.12-19.39,14.95-32.6,14.95-23.86,0-40.95-17.58-40.95-41.38v-.29c0-22.44,15.91-41.53,39.05-41.53,24.93,0,38.33,19.42,38.33,42.84,0,1.69-.16,3.39-.3,5.08a1.42,1.42,0,0,1-1.42,1.3Zm-.18-14.51h36.23c-1.47-9.62-7.33-17.43-17.92-17.43-10.37,0-16.53,8-18.31,17.43Zm82.89,14.51C332.46,107.5,340,114,350.76,114c8.26,0,14-3.1,19.86-8.79a1.42,1.42,0,0,1,1.94,0l10.35,9.19a1.41,1.41,0,0,1,.15,2c-8.43,10.12-19.38,14.95-32.6,14.95-23.85,0-40.94-17.58-40.94-41.38v-.29c0-22.44,15.9-41.53,39.05-41.53,24.93,0,38.32,19.42,38.32,42.84,0,1.69-.15,3.39-.29,5.08a1.42,1.42,0,0,1-1.42,1.3Zm-.18-14.51h36.24c-1.48-9.62-7.33-17.43-17.93-17.43-10.36,0-16.53,8-18.31,17.43ZM507,131a55.54,55.54,0,0,1-33.55-11.82,1.43,1.43,0,0,1-.31-1.91l7.88-12a1.36,1.36,0,0,1,.94-.62,1.35,1.35,0,0,1,1.1.27c6.86,5.17,15.65,9.19,24.38,9.19,4.49,0,10.54-1.33,10.54-6.89v-.29a4.21,4.21,0,0,0-.39-1.81c-1.83-4-11.91-6.42-15.79-7.61-12.53-3.54-25.1-8.72-25.1-24v-.29c0-16.22,13.79-24.9,28.84-24.9a54.77,54.77,0,0,1,29.08,9,1.43,1.43,0,0,1,.46,1.88l-7,12.55a1.42,1.42,0,0,1-2,.52c-6-3.62-13.92-7.08-21-7.08-4,0-9.37,1.39-9.37,6.3v.29a3.76,3.76,0,0,0,.22,1.29c1.53,4.13,12.31,6.94,16.14,8.15C524,85,537,90.42,537,105.05v.29c0,17.55-13.88,25.63-30,25.63ZM413.61,84.34v43.75a1.43,1.43,0,0,1-1.42,1.42H394.54a1.43,1.43,0,0,1-1.42-1.42v-49c0-42,72.63-42,72.63,0v49a1.42,1.42,0,0,1-1.42,1.42H446.68a1.43,1.43,0,0,1-1.42-1.42V84.34C445.26,61,413.61,61,413.61,84.34Z"/><path class="cls-2" d="M44,136.9q-8.28-9.09-15-17.67c6.52-1.14,9.6-9.06,16-11.49,14.15-5.32,31.77-16.31,46.13-11,3,1.13,5.13,6.86,7.39,9.32A264.84,264.84,0,0,1,75.2,135.52q-7.47,8.29-16.25,17Q50.9,144.53,44,136.9Z"/><path class="cls-3" d="M64.51,107C52.8,112.59,40,119.41,29,119.23Q15.3,101.76,8.08,86.35c7.85-8.87,17-26.55,35.55-8.25,4.82,2.52,10.13,11.71,13.49-4.16s17.55-10.86,35-8c10.69-18.35,18.74-18.16,23.52,4.85q-4.38,16.32-17.1,35.29C88.33,95,76,101.53,64.51,107Z"/><path class="cls-4" d="M30.74,64.27c2.77,4.25,2.69,4.48,3.35,8.65C36.9,76.12,43.23,82.61,47,84.6c-11.34,2.8-27.12,4.46-39,1.75Q1.3,71.89.21,59.24C6,43.67,19.51,42.59,30.74,64.27Z"/><path class="cls-5" d="M29,119.23l1.21,1.53,2.2,0c8.16-.79,16.77-4.59,23.9-7.93,3-1.42,6-2.88,9-4.31,6.38-3,14.7-7.43,21.88-6.71a15.08,15.08,0,0,1,9.19,4.45c.43.43.85.83,1.23,1.22l1-1.42C88.33,95,76,101.53,64.51,107,52.8,112.59,40,119.41,29,119.23Z"/><path class="cls-6" d="M87.78,66.46c11.35.63,24.94,5.08,27.44,5.73.11-.38.29-1,.39-1.39C109.27,65.48,96,62,87.13,64.43c-7.29,13.78-3.95,13.74-21.29,21.91C59.11,87.54,52.2,87.5,47,84.6c-10.91,2.47-27.6,4.35-39,1.75.26.57.54,1.14.82,1.72l2,.46C21,90.44,36.94,89.38,47,87.18,47,87.18,77.65,100.65,87.78,66.46Z"/><path class="cls-7" d="M31.29,66.46c5.54,0-.38-1.61-.55-2.19-10.3-5.64-24.64-7.54-30.53-5,0,.5.1,1,.15,1.52L2,60.39c2.69-.73,4.15-.77,7.87-.41C15.07,60.31,21.29,61.21,31.29,66.46Z"/><path class="cls-8" d="M117,44c-9.51-6.12-27.29-7-34.11-1.67,1.2,3.58-.81,9.61-.81,12.92s1.93,5.62,1.38,8.11c-.2.94,24.77,3.62,32.12,7.44a63.16,63.16,0,0,0,2.3-16.37A61,61,0,0,0,117,44ZM30.83,56.17c0-3.23,13.84-11,6.8-13.3C31.34,34.94,10.19,38.47.87,44A61.06,61.06,0,0,0,0,54.43c0,1.58.07,3.18.21,4.81,5.89-2.51,20.23-.61,30.53,5-.27-.92,3,.18,2.78-.78C33,61.17,30.83,59.39,30.83,56.17Z"/><path class="cls-9" d="M56.73,42.82c15.74,0,10.45-4,26.19-.49L117,44a49.39,49.39,0,0,0-14.65-27.83c-27.89-6.57-56.95-5.85-86.86,0A49.45,49.45,0,0,0,.87,44l41.4-2.37C59.32,36.64,41,42.82,56.73,42.82Z"/><circle class="cls-10" cx="58.95" cy="58.35" r="28.83"/><path class="cls-11" d="M15.52,16.17a344.44,344.44,0,0,0,86.86,0C79.79-5.39,38.11-5.39,15.52,16.17Z"/><circle class="cls-12" cx="58.95" cy="58.63" r="29.1"/></g></g></svg>