<svg xmlns="http://www.w3.org/2000/svg" xmlns:xlink="http://www.w3.org/1999/xlink" viewBox="0 0 551.97 165.33"><defs><style>.cls-1,.cls-11,.cls-2,.cls-3,.cls-4,.cls-5,.cls-6,.cls-7,.cls-8,.cls-9{fill-rule:evenodd;}.cls-1{fill:url(#GradientFill_1);}.cls-2{fill:url(#GradientFill_1-2);}.cls-3{fill:url(#GradientFill_2);}.cls-4{fill:url(#GradientFill_3);}.cls-5{fill:url(#GradientFill_1-3);}.cls-6{fill:url(#GradientFill_2-2);}.cls-7{fill:url(#GradientFill_4);}.cls-8{fill:url(#GradientFill_5);}.cls-9{fill:url(#GradientFill_6);}.cls-10{fill:url(#GradientFill_7);}.cls-11{fill:url(#GradientFill_8);}</style><radialGradient id="GradientFill_1" cx="382.84" cy="31.64" r="409.91" gradientTransform="translate(0 22.45) scale(1 0.29)" gradientUnits="userSpaceOnUse"><stop offset="0" stop-color="#76c4e3"/><stop offset="0.34" stop-color="#66b2da"/><stop offset="1" stop-color="#3f84c5"/></radialGradient><radialGradient id="GradientFill_1-2" cx="74.8" cy="106.14" r="54.82" gradientTransform="matrix(1, 0.08, -0.06, 0.79, 6.6, 16.92)" xlink:href="#GradientFill_1"/><radialGradient id="GradientFill_2" cx="74.04" cy="70.39" r="117" gradientTransform="translate(1.65 35.69) rotate(2.88) scale(1 0.44)" gradientUnits="userSpaceOnUse"><stop offset="0" stop-color="#76c4e3"/><stop offset="0.56" stop-color="#489fc5"/><stop offset="1" stop-color="#3f73ae"/></radialGradient><radialGradient id="GradientFill_3" cx="16.63" cy="58.01" r="41.26" gradientTransform="translate(-34.42 77.98) rotate(-93.71) scale(1 0.9)" gradientUnits="userSpaceOnUse"><stop offset="0" stop-color="#76c4e3"/><stop offset="0.45" stop-color="#489fc5"/><stop offset="1" stop-color="#3f73ae"/></radialGradient><radialGradient id="GradientFill_1-3" cx="74.8" cy="109.47" r="54.76" gradientTransform="translate(0.36 77.22) rotate(0.65) scale(1 0.29)" xlink:href="#GradientFill_1"/><radialGradient id="GradientFill_2-2" cx="55.97" cy="56.83" r="299.04" gradientTransform="matrix(1, -0.07, 0.01, 0.18, -0.59, 50.78)" xlink:href="#GradientFill_2"/><radialGradient id="GradientFill_4" cx="12.33" cy="64.35" r="149.46" gradientTransform="matrix(0.23, -0.97, 0.41, 0.09, -16.54, 70.28)" gradientUnits="userSpaceOnUse"><stop offset="0" stop-color="#4da4c8"/><stop offset="0.35" stop-color="#489fc5"/><stop offset="1" stop-color="#3f73ae"/></radialGradient><linearGradient id="GradientFill_5" x1="63.91" y1="41.7" x2="63.91" y2="73.02" gradientUnits="userSpaceOnUse"><stop offset="0" stop-color="#eed6d0"/><stop offset="1" stop-color="#f5c4a9"/></linearGradient><linearGradient id="GradientFill_6" x1="63.91" y1="13.83" x2="63.91" y2="46.11" gradientUnits="userSpaceOnUse"><stop offset="0" stop-color="#feeee9"/><stop offset="1" stop-color="#ecdfde"/></linearGradient><linearGradient id="GradientFill_7" x1="51.59" y1="38.14" x2="71.87" y2="79.48" gradientUnits="userSpaceOnUse"><stop offset="0" stop-color="#fddcc9"/><stop offset="1" stop-color="#cd9060"/></linearGradient><linearGradient id="GradientFill_8" x1="63.91" y1="-4.24" x2="63.91" y2="44.57" gradientUnits="userSpaceOnUse"><stop offset="0" stop-color="#fff9f8"/><stop offset="0.13" stop-color="#fbf4f3"/><stop offset="0.61" stop-color="#f0e4e3"/><stop offset="1" stop-color="#ecdfde"/></linearGradient></defs><title>logo</title><g id="Layer_2" data-name="Layer 2"><g id="Layer_1-2" data-name="Layer 1"><path class="cls-1" d="M215.25,61.89V28a1.43,1.43,0,0,1,1.42-1.42h17.65A1.42,1.42,0,0,1,235.74,28V96.1c0,59-82.47,54.63-82.47,0v-.29c0-15.31,7-29,20.4-36.69,10.75-6.18,25-7.7,36-1.41a27.79,27.79,0,0,1,5.54,4.14Zm-20.6,57.47c12.66,0,20.89-11.12,20.89-23.22v-.29c0-12.17-8.16-23.23-20.89-23.23-13.1,0-20.74,10.74-20.74,23.23v.29c0,12.2,7.93,23.22,20.74,23.22Zm67.86-15.67c2.16,10.21,9.67,16.7,20.46,16.7,8.27,0,14-3.11,19.86-8.79a1.42,1.42,0,0,1,1.94,0l10.36,9.18a1.44,1.44,0,0,1,.15,2c-8.43,10.12-19.39,14.95-32.6,14.95-23.86,0-41-17.59-41-41.38V96c0-22.43,15.91-41.53,39-41.53,24.94,0,38.33,19.43,38.33,42.85,0,1.69-.16,3.39-.3,5.07a1.42,1.42,0,0,1-1.42,1.31Zm-.18-14.52h36.24c-1.48-9.61-7.34-17.42-17.93-17.42-10.36,0-16.53,8-18.31,17.42Zm82.89,14.52c2.17,10.21,9.68,16.7,20.47,16.7,8.26,0,14-3.11,19.86-8.79a1.42,1.42,0,0,1,1.94,0l10.35,9.18a1.42,1.42,0,0,1,.15,2c-8.43,10.12-19.38,14.95-32.59,14.95-23.86,0-40.95-17.59-40.95-41.38V96c0-22.43,15.9-41.53,39.05-41.53,24.93,0,38.32,19.43,38.32,42.85,0,1.69-.15,3.39-.29,5.07a1.43,1.43,0,0,1-1.42,1.31Zm-.17-14.52h36.23c-1.47-9.61-7.33-17.42-17.92-17.42-10.37,0-16.54,8-18.31,17.42ZM522,137.38a55.51,55.51,0,0,1-33.55-11.83,1.43,1.43,0,0,1-.31-1.9l7.88-12a1.38,1.38,0,0,1,.95-.62,1.37,1.37,0,0,1,1.1.27c6.85,5.17,15.65,9.19,24.37,9.19,4.49,0,10.54-1.33,10.54-6.89v-.29a4.18,4.18,0,0,0-.39-1.81c-1.83-4-11.9-6.42-15.79-7.61-12.53-3.54-25.1-8.72-25.1-24v-.29c0-16.22,13.79-24.91,28.84-24.91a54.78,54.78,0,0,1,29.08,9,1.41,1.41,0,0,1,.46,1.88l-7,12.55a1.35,1.35,0,0,1-.88.68,1.37,1.37,0,0,1-1.1-.16c-5.95-3.62-13.92-7.09-21-7.09-4,0-9.37,1.4-9.37,6.31v.29a3.8,3.8,0,0,0,.22,1.29c1.53,4.13,12.31,6.94,16.14,8.15C538.93,91.39,552,96.83,552,111.45v.3c0,17.54-13.88,25.63-30,25.63ZM428.54,90.74V134.5a1.43,1.43,0,0,1-1.42,1.42H409.47a1.43,1.43,0,0,1-1.42-1.42v-49c0-42,72.64-42,72.64,0v49a1.43,1.43,0,0,1-1.43,1.42H461.62a1.43,1.43,0,0,1-1.43-1.42V90.74C460.19,67.4,428.54,67.4,428.54,90.74Z"/><path class="cls-2" d="M47.64,148.4q-9-9.85-16.25-19.16c7.06-1.22,10.4-9.82,17.38-12.44,15.34-5.78,34.44-17.68,50-11.89,3.28,1.21,5.55,7.43,8,10.1a288.41,288.41,0,0,1-25.27,31.9q-8.1,9-17.61,18.42Q55.18,156.68,47.64,148.4Z"/><path class="cls-3" d="M69.93,116c-12.69,6-26.62,13.45-38.54,13.24Q16.57,110.32,8.76,93.61c8.51-9.62,18.38-28.78,38.54-9,5.22,2.74,11,12.7,14.62-4.51s19-11.77,37.91-8.66c11.58-19.89,20.32-19.69,25.5,5.26Q120.57,94.44,106.79,115C95.75,103,82.41,110.06,69.93,116Z"/><path class="cls-4" d="M33.33,69.67c3,4.61,2.91,4.85,3.62,9.38,3,3.47,9.91,10.5,14,12.66-12.29,3-29.4,4.83-42.23,1.9Q1.41,77.94.23,64.21C6.51,47.34,21.15,46.16,33.33,69.67Z"/><path class="cls-5" d="M31.39,129.24c.43.56.87,1.11,1.31,1.67l2.38,0c8.85-.86,18.18-5,25.9-8.6,3.26-1.53,6.5-3.12,9.75-4.67,6.92-3.3,15.94-8.06,23.72-7.28a16.42,16.42,0,0,1,10,4.83l1.34,1.32,1-1.53c-11-12-24.38-5-36.86,1C57.24,122.05,43.31,129.45,31.39,129.24Z"/><path class="cls-6" d="M95.15,72c12.31.69,27,5.52,29.76,6.22.11-.42.31-1.1.42-1.51-6.87-5.77-21.22-9.5-30.88-6.91-7.9,14.94-4.28,14.9-23.08,23.76-7.3,1.3-14.78,1.26-20.38-1.89-11.82,2.68-29.91,4.71-42.23,1.9.29.62.58,1.24.88,1.86l2.14.5C22.74,98,40,96.9,51,94.5,51,94.5,84.18,109.11,95.15,72Z"/><path class="cls-7" d="M33.92,72c6,0-.41-1.75-.59-2.37C22.16,63.56,6.61,61.5.23,64.21c.05.55.1,1.1.16,1.66l1.79-.41c2.91-.79,4.49-.83,8.53-.44C16.34,65.37,23.08,66.35,33.92,72Z"/><path class="cls-8" d="M126.87,47.69c-10.31-6.63-29.59-7.54-37-1.8,1.31,3.88-.87,10.41-.87,14s2.09,6.1,1.5,8.79c-.22,1,26.84,3.93,34.82,8.07A68.83,68.83,0,0,0,127.81,59a66,66,0,0,0-.94-11.31ZM33.42,60.89c0-3.5,15-12,7.37-14.42C34,37.88,11,41.71.94,47.69A67.06,67.06,0,0,0,0,59c0,1.71.08,3.45.23,5.21,6.38-2.71,21.93-.65,33.1,5.46-.3-1,3.21.2,3-.84C35.82,66.31,33.42,64.38,33.42,60.89Z"/><path class="cls-9" d="M61.5,46.42c17.06,0,11.32-4.37,28.38-.53l37,1.8A53.59,53.59,0,0,0,111,17.53c-30.23-7.12-61.74-6.34-94.15,0A53.59,53.59,0,0,0,.94,47.69l44.88-2.56C64.3,39.72,44.43,46.42,61.5,46.42Z"/><circle class="cls-10" cx="63.91" cy="63.25" r="31.25"/><path class="cls-11" d="M16.83,17.53a373.59,373.59,0,0,0,94.15,0C86.5-5.84,41.31-5.84,16.83,17.53Z"/></g></g></svg>