<?xml version="1.0" encoding="utf-8"?>
<!-- Generator: Adobe Illustrator 16.0.4, SVG Export Plug-In . SVG Version: 6.00 Build 0)  -->
<!DOCTYPE svg PUBLIC "-//W3C//DTD SVG 1.1//EN" "http://www.w3.org/Graphics/SVG/1.1/DTD/svg11.dtd">
<svg version="1.1" id="Layer_1" xmlns="http://www.w3.org/2000/svg" xmlns:xlink="http://www.w3.org/1999/xlink" x="0px" y="0px"
	 width="96.31px" height="51px" viewBox="0.76 0 96.31 51" enable-background="new 0.76 0 96.31 51" xml:space="preserve">
<path fill="#3BE099" d="M7.276,15.051C3.292,17.757,0.7,22.334,0.7,27.561c0,0.353,0,23.26,0,23.26
	c0.582-7.57,6.504-7.976,14.072-7.997C10.898,34.189,8.317,24.852,7.276,15.051z"/>
<path fill="#2BD892" d="M15.751,42.823c0.012,0,0.024,0,0.036,0h18.446c-5.303-9.074-8.747-19.368-9.805-30.358
	c-5.237,0-8.674,0-8.677,0c-3.157,0-6.07,0.952-8.475,2.586c1.041,9.8,3.622,19.138,7.496,27.772
	C15.096,42.823,15.422,42.823,15.751,42.823z"/>
<path fill="#2AD392" d="M55.514,42.823c-7.266-8.348-12.154-18.818-13.611-30.358c-6.494,0-12.725,0-17.475,0
	c1.059,10.991,4.502,21.284,9.805,30.358H55.514z"/>
<path fill="#23CC8F" d="M76.465,42.823c2.028-0.037,3.958-0.463,5.716-1.206C70.474,36.29,61.789,25.479,59.404,12.465
	c-5.435,0-11.577,0-17.501,0c1.457,11.54,6.345,22.011,13.611,30.358H76.465z"/>
<path fill="#21C184" d="M82.182,41.617c5.483-2.31,9.312-7.697,9.312-14.005c0-3.159-0.961-6.122-2.607-8.555
	c-1.062,0.768-2.366,1.196-3.777,1.196c-3.562,0-6.451-2.888-6.451-6.451c0-0.426,0.042-0.789,0.121-1.192
	c-0.754-0.122-1.526-0.146-2.313-0.146c0,0-7.415,0-17.062,0C61.789,25.479,70.474,36.29,82.182,41.617z"/>
<circle fill="#21C184" cx="90.998" cy="6.138" r="6.071"/>
<path fill="#FFFFFF" d="M23.183,25.776c0,0.589-0.109,1.088-0.328,1.492s-0.514,0.729-0.885,0.978
	c-0.371,0.248-0.8,0.43-1.285,0.542c-0.485,0.114-0.991,0.172-1.514,0.172h-1.213v3.812h-2.441V22.664h3.712
	c0.552,0,1.069,0.055,1.549,0.164c0.48,0.11,0.899,0.286,1.257,0.528c0.356,0.242,0.637,0.562,0.842,0.957
	C23.082,24.708,23.183,25.195,23.183,25.776z M20.742,25.79c0-0.236-0.048-0.432-0.144-0.585c-0.095-0.153-0.224-0.271-0.385-0.356
	c-0.162-0.085-0.345-0.143-0.55-0.172c-0.205-0.029-0.416-0.043-0.635-0.043h-1.071v2.384h1.028c0.229,0,0.447-0.019,0.657-0.056
	c0.209-0.039,0.397-0.106,0.563-0.2c0.167-0.096,0.297-0.222,0.392-0.378C20.694,26.226,20.742,26.028,20.742,25.79z"/>
<path fill="#FFFFFF" d="M24.166,32.771V21.979h2.384v10.793H24.166z"/>
<path fill="#FFFFFF" d="M35.232,29.303c0,0.096,0,0.19,0,0.285s-0.006,0.186-0.015,0.271h-5.154
	c0.019,0.201,0.079,0.381,0.179,0.542c0.1,0.162,0.228,0.303,0.384,0.421c0.158,0.12,0.333,0.213,0.529,0.278
	c0.195,0.067,0.397,0.101,0.607,0.101c0.371,0,0.686-0.068,0.942-0.206c0.256-0.14,0.466-0.317,0.628-0.536l1.627,1.027
	c-0.333,0.485-0.773,0.86-1.321,1.122C33.092,32.869,32.457,33,31.733,33c-0.533,0-1.037-0.082-1.513-0.25
	c-0.477-0.165-0.893-0.407-1.25-0.727c-0.356-0.319-0.637-0.712-0.842-1.179c-0.205-0.467-0.307-0.999-0.307-1.6
	c0-0.581,0.1-1.106,0.299-1.577c0.2-0.471,0.471-0.87,0.813-1.199c0.343-0.329,0.748-0.582,1.214-0.764
	c0.466-0.181,0.971-0.271,1.514-0.271c0.523,0,1.004,0.088,1.442,0.265c0.438,0.176,0.813,0.431,1.127,0.764
	c0.315,0.333,0.559,0.738,0.735,1.214S35.232,28.694,35.232,29.303z M33.075,28.402c0-0.371-0.116-0.689-0.35-0.955
	c-0.233-0.267-0.583-0.4-1.049-0.4c-0.229,0-0.438,0.036-0.628,0.106c-0.19,0.071-0.357,0.17-0.5,0.294
	c-0.143,0.123-0.257,0.269-0.343,0.436c-0.086,0.166-0.133,0.34-0.143,0.52H33.075z"/>
<path fill="#FFFFFF" d="M36.35,26.633c0.418-0.399,0.906-0.699,1.463-0.899c0.557-0.2,1.125-0.3,1.707-0.3
	c0.599,0,1.106,0.073,1.52,0.222c0.414,0.147,0.75,0.376,1.006,0.686c0.257,0.309,0.445,0.699,0.564,1.17
	c0.118,0.471,0.178,1.029,0.178,1.678v3.583h-2.142v-0.757h-0.042c-0.18,0.296-0.455,0.523-0.821,0.686
	c-0.366,0.162-0.763,0.242-1.192,0.242c-0.286,0-0.581-0.037-0.885-0.112c-0.304-0.077-0.583-0.201-0.834-0.372
	c-0.253-0.171-0.46-0.399-0.622-0.686s-0.243-0.638-0.243-1.058c0-0.513,0.141-0.928,0.422-1.241
	c0.28-0.313,0.643-0.556,1.085-0.728c0.442-0.171,0.935-0.285,1.478-0.344c0.542-0.056,1.071-0.085,1.584-0.085v-0.114
	c0-0.351-0.124-0.611-0.371-0.777c-0.248-0.167-0.552-0.251-0.913-0.251c-0.334,0-0.655,0.071-0.964,0.215
	c-0.31,0.144-0.574,0.313-0.792,0.514L36.35,26.633z M40.646,29.675h-0.3c-0.257,0-0.516,0.011-0.778,0.036
	c-0.262,0.021-0.495,0.068-0.699,0.135c-0.205,0.065-0.374,0.163-0.507,0.291c-0.133,0.13-0.2,0.298-0.2,0.507
	c0,0.135,0.031,0.248,0.093,0.345c0.062,0.095,0.14,0.17,0.235,0.229c0.095,0.056,0.204,0.096,0.328,0.121
	c0.124,0.023,0.243,0.035,0.357,0.035c0.476,0,0.839-0.132,1.092-0.394c0.252-0.262,0.377-0.615,0.377-1.062V29.675z"/>
<path fill="#FFFFFF" d="M48.544,27.762c-0.191-0.182-0.414-0.333-0.67-0.457c-0.257-0.124-0.529-0.187-0.814-0.187
	c-0.219,0-0.421,0.043-0.606,0.128c-0.186,0.086-0.279,0.234-0.279,0.443c0,0.2,0.103,0.342,0.307,0.429
	c0.205,0.085,0.535,0.18,0.992,0.284c0.267,0.059,0.535,0.138,0.807,0.244c0.271,0.104,0.516,0.242,0.735,0.414
	c0.219,0.171,0.395,0.38,0.529,0.628c0.133,0.248,0.2,0.542,0.2,0.885c0,0.447-0.091,0.826-0.271,1.136
	c-0.181,0.309-0.417,0.559-0.707,0.749c-0.291,0.19-0.616,0.327-0.978,0.413C47.426,32.958,47.064,33,46.703,33
	c-0.581,0-1.149-0.094-1.706-0.277c-0.557-0.187-1.021-0.46-1.392-0.82l1.313-1.387c0.21,0.23,0.467,0.42,0.771,0.571
	c0.304,0.153,0.628,0.229,0.971,0.229c0.19,0,0.378-0.044,0.563-0.135s0.278-0.251,0.278-0.479c0-0.219-0.114-0.38-0.342-0.484
	c-0.229-0.104-0.585-0.215-1.071-0.329c-0.247-0.056-0.495-0.133-0.742-0.229c-0.248-0.095-0.469-0.224-0.664-0.385
	s-0.354-0.362-0.479-0.599c-0.123-0.24-0.185-0.524-0.185-0.858c0-0.428,0.09-0.791,0.271-1.091c0.18-0.301,0.414-0.545,0.699-0.735
	c0.285-0.191,0.602-0.332,0.95-0.421c0.347-0.091,0.692-0.136,1.035-0.136c0.533,0,1.054,0.084,1.563,0.249
	c0.509,0.168,0.939,0.417,1.292,0.75L48.544,27.762z"/>
<path fill="#FFFFFF" d="M57.938,29.303c0,0.096,0,0.19,0,0.285s-0.005,0.186-0.014,0.271H52.77c0.019,0.201,0.079,0.381,0.179,0.542
	c0.1,0.162,0.228,0.303,0.386,0.421c0.157,0.12,0.333,0.213,0.528,0.278c0.195,0.067,0.397,0.101,0.606,0.101
	c0.372,0,0.686-0.068,0.943-0.206c0.257-0.14,0.466-0.317,0.628-0.536l1.627,1.027c-0.333,0.485-0.773,0.86-1.32,1.122
	C55.799,32.869,55.164,33,54.44,33c-0.533,0-1.037-0.082-1.513-0.25c-0.476-0.165-0.892-0.407-1.249-0.727
	c-0.357-0.319-0.638-0.712-0.843-1.179c-0.204-0.467-0.307-0.999-0.307-1.6c0-0.581,0.1-1.106,0.3-1.577
	c0.2-0.471,0.471-0.87,0.813-1.199s0.748-0.582,1.214-0.764c0.466-0.181,0.97-0.271,1.513-0.271c0.523,0,1.004,0.088,1.442,0.265
	c0.438,0.176,0.814,0.431,1.128,0.764s0.56,0.738,0.736,1.214C57.85,28.151,57.938,28.694,57.938,29.303z M55.782,28.402
	c0-0.371-0.117-0.689-0.35-0.955c-0.233-0.267-0.583-0.4-1.05-0.4c-0.229,0-0.438,0.036-0.628,0.106
	c-0.19,0.071-0.356,0.17-0.5,0.294c-0.143,0.123-0.257,0.269-0.343,0.436c-0.085,0.166-0.133,0.34-0.143,0.52H55.782z"/>
<path fill="#108757" d="M58.555,32.135c0-0.194,0.071-0.362,0.214-0.501c0.143-0.14,0.314-0.21,0.515-0.21
	c0.194,0,0.364,0.068,0.51,0.2c0.146,0.135,0.218,0.297,0.218,0.492c0,0.194-0.072,0.361-0.214,0.501
	c-0.143,0.14-0.314,0.21-0.515,0.21c-0.097,0-0.19-0.02-0.278-0.056c-0.088-0.035-0.166-0.085-0.232-0.146
	c-0.067-0.061-0.12-0.132-0.16-0.218C58.574,32.323,58.555,32.232,58.555,32.135z"/>
<path fill="#108757" d="M63.893,29.611c-0.085-0.121-0.213-0.223-0.383-0.306c-0.17-0.081-0.343-0.121-0.519-0.121
	c-0.2,0-0.376,0.04-0.528,0.121c-0.151,0.083-0.278,0.19-0.378,0.325c-0.101,0.132-0.175,0.283-0.223,0.45
	c-0.049,0.166-0.073,0.334-0.073,0.505s0.026,0.339,0.078,0.507c0.051,0.166,0.129,0.316,0.232,0.45
	c0.104,0.133,0.232,0.24,0.388,0.323c0.155,0.081,0.335,0.122,0.542,0.122c0.169,0,0.34-0.033,0.51-0.101
	c0.17-0.065,0.307-0.163,0.411-0.291l0.683,0.693c-0.183,0.192-0.415,0.344-0.697,0.45c-0.282,0.105-0.587,0.158-0.916,0.158
	c-0.321,0-0.626-0.051-0.915-0.154c-0.288-0.104-0.541-0.255-0.756-0.454c-0.215-0.201-0.385-0.443-0.51-0.729
	c-0.124-0.285-0.187-0.609-0.187-0.975c0-0.353,0.062-0.67,0.187-0.955c0.125-0.286,0.293-0.528,0.506-0.729
	c0.212-0.201,0.459-0.355,0.742-0.466c0.283-0.107,0.584-0.162,0.906-0.162s0.633,0.061,0.934,0.182
	c0.301,0.121,0.539,0.289,0.715,0.501L63.893,29.611z"/>
<path fill="#108757" d="M64.922,30.568c0-0.346,0.063-0.661,0.187-0.943c0.125-0.282,0.293-0.522,0.506-0.724
	s0.465-0.355,0.756-0.466c0.292-0.107,0.601-0.162,0.929-0.162c0.328,0,0.637,0.055,0.928,0.162c0.292,0.11,0.544,0.265,0.757,0.466
	c0.212,0.201,0.38,0.441,0.505,0.724s0.188,0.598,0.188,0.943s-0.063,0.662-0.188,0.946c-0.125,0.285-0.293,0.53-0.505,0.734
	c-0.213,0.203-0.465,0.363-0.757,0.478c-0.291,0.115-0.601,0.172-0.928,0.172c-0.328,0-0.637-0.057-0.929-0.172
	c-0.291-0.114-0.543-0.274-0.756-0.478c-0.212-0.204-0.381-0.449-0.506-0.734C64.985,31.23,64.922,30.914,64.922,30.568z
	 M66.033,30.568c0,0.169,0.026,0.34,0.078,0.511c0.051,0.169,0.128,0.321,0.232,0.454c0.103,0.135,0.234,0.242,0.392,0.327
	c0.158,0.086,0.346,0.128,0.565,0.128c0.218,0,0.406-0.042,0.564-0.128c0.158-0.085,0.289-0.192,0.392-0.327
	c0.103-0.133,0.181-0.285,0.232-0.454c0.052-0.171,0.078-0.342,0.078-0.511c0-0.17-0.026-0.339-0.078-0.506
	c-0.051-0.168-0.129-0.316-0.232-0.451c-0.103-0.134-0.233-0.241-0.392-0.322c-0.158-0.082-0.346-0.124-0.564-0.124
	c-0.219,0-0.407,0.042-0.565,0.124c-0.158,0.081-0.289,0.188-0.392,0.322c-0.104,0.135-0.181,0.283-0.232,0.451
	C66.059,30.229,66.033,30.398,66.033,30.568z"/>
<path fill="#108757" d="M75.816,28.273c0.286,0,0.53,0.05,0.733,0.15s0.371,0.232,0.501,0.395c0.13,0.165,0.226,0.353,0.287,0.566
	c0.061,0.213,0.091,0.431,0.091,0.654v2.732h-1.093V30.35c0-0.127-0.009-0.262-0.027-0.401c-0.02-0.139-0.058-0.266-0.119-0.378
	c-0.061-0.111-0.144-0.204-0.25-0.278c-0.106-0.071-0.247-0.107-0.423-0.107c-0.17,0-0.316,0.036-0.437,0.107
	c-0.122,0.074-0.222,0.168-0.301,0.283c-0.079,0.116-0.136,0.245-0.173,0.388c-0.036,0.142-0.055,0.284-0.055,0.422v2.387h-1.092
	v-2.64c0-0.274-0.065-0.501-0.196-0.68c-0.131-0.18-0.336-0.268-0.615-0.268c-0.165,0-0.307,0.034-0.428,0.104
	c-0.122,0.069-0.22,0.158-0.296,0.268s-0.133,0.236-0.173,0.378c-0.04,0.144-0.06,0.288-0.06,0.434v2.403h-1.092V28.4h1.038v0.702
	h0.018c0.049-0.11,0.114-0.212,0.196-0.311c0.082-0.098,0.179-0.186,0.292-0.264c0.111-0.079,0.241-0.142,0.387-0.188
	c0.145-0.045,0.306-0.067,0.482-0.067c0.34,0,0.622,0.076,0.847,0.228c0.225,0.152,0.397,0.352,0.519,0.602
	c0.146-0.268,0.34-0.473,0.583-0.616C75.203,28.345,75.488,28.273,75.816,28.273z"/>
</svg>
