<?xml version="1.0" encoding="UTF-8"?>
<svg width="157px" height="51px" viewBox="0 0 157 51" version="1.1" xmlns="http://www.w3.org/2000/svg" xmlns:xlink="http://www.w3.org/1999/xlink">
    <defs>
        <polygon id="path-1" points="0.0251694915 0.9586777 106.46653 0.9586777 106.46653 35 0.0251694915 35"></polygon>
        <polygon id="path-3" points="0.0251694915 0 106.46653 0 106.46653 44 0.0251694915 44"></polygon>
        <polygon id="path-5" points="0.0251694915 0 106.46653 0 106.46653 35 0.0251694915 35"></polygon>
    </defs>
    <g id="Page-1" stroke="none" stroke-width="1" fill="none" fill-rule="evenodd">
        <g id="please-logo" transform="translate(0.000000, -1.000000)">
            <g id="Group-14" transform="translate(108.000000, 22.041322)" fill="#50A18A" fill-rule="nonzero">
                <polyline id="Fill-10" transform="translate(30.528076, 6.528678) rotate(-180.000000) translate(-30.528076, -6.528678) " points="35.056152 9.6001324 35.056152 12.0986783 29.1650477 12.0986783 25.9999997 12.0986783 25.9999997 9.6001324 29.1650477 9.6001324 29.1650477 0.958678 31.8263019 0.958678 31.8263019 9.6001324"></polyline>
                <polyline id="Fill-11" points="22.1586907 9.64302479 22.1586907 12.1420248 14 12.1420248 14 1 22.0634661 1 22.0634661 3.49857851 16.6616737 3.49857851 16.6616737 5.32952066 20.8914068 5.32952066 20.8914068 7.66919835 16.6616737 7.66919835 16.6616737 9.64302479 22.1586907 9.64302479"></polyline>
                <path d="M44.0340339,8.0514876 L43.2420339,5.88630579 C43.0046017,5.2498595 42.7193475,4.2471405 42.7034068,4.2471405 L42.6874661,4.2471405 C42.6719449,4.2471405 42.3862712,5.2498595 42.148839,5.88630579 L41.356839,8.0514876 L44.0340339,8.0514876 Z M44.8897966,10.3911653 L40.5010763,10.3911653 L39.8676441,12.1420248 L37,12.1420248 L41.4357034,1 L43.95475,1 L48.3908729,12.1420248 L45.5232288,12.1420248 L44.8897966,10.3911653 Z" id="Fill-12"></path>
                <path d="M6.51364338,12.098678 L0,12.098678 L0,0.958677686 L6.31322358,0.958677686 C8.53454299,0.958677686 9.57004527,2.39501956 9.57004527,3.79795813 C9.57004527,5.18419506 8.71826114,6.11948744 7.66605721,6.35331054 C8.85187434,6.53702868 9.78716672,7.67274086 9.78716672,9.07567944 C9.78716672,10.6957395 8.70155949,12.098678 6.51364338,12.098678 Z M5.66185924,5.20089671 C6.24641698,5.20089671 6.64725658,4.88356536 6.64725658,4.33241092 C6.64725658,3.79795813 6.24641698,3.46392514 5.66185924,3.46392514 L2.87268375,3.46392514 L2.87268375,5.20089671 L5.66185924,5.20089671 Z M5.76206914,9.59343058 C6.44683678,9.59343058 6.86437802,9.24269593 6.86437802,8.64143654 C6.86437802,8.0902821 6.46353843,7.70614416 5.76206914,7.70614416 L2.87268375,7.70614416 L2.87268375,9.59343058 L5.76206914,9.59343058 Z" id="B"></path>
            </g>
            <g id="Group-5" transform="translate(0.000000, 0.041322)">
                <g id="Fill-1-Clipped">
                    <mask id="mask-2" fill="white">
                        <use xlink:href="#path-1"></use>
                    </mask>
                    <g id="path-2"></g>
                    <path d="M98.677411,7.118719 C98.677411,3.7168926 95.932678,0.9586777 92.5473814,0.9586777 C89.1599873,0.9586777 86.4152542,3.7168926 86.4152542,7.118719 C86.4152542,10.5209669 89.1599873,13.2791818 92.5473814,13.2791818 C95.932678,13.2791818 98.677411,10.5209669 98.677411,7.118719" id="Fill-1" fill="#50A18A" fill-rule="nonzero" mask="url(#mask-2)"></path>
                </g>
                <g id="Fill-3-Clipped" transform="translate(0.000000, 10.000000)">
                    <mask id="mask-4" fill="white">
                        <use xlink:href="#path-3"></use>
                    </mask>
                    <g id="path-2"></g>
                    <path d="M0,41.9586777 C0.0163601695,39.9785289 1.33505118,34.5556468 6.35566068,34.0462884 C3.73551661,29.0676768 1.81723729,25.9450992 0,20.5374132 L0,54.6033058" id="Fill-3" fill="#A4D2B6" fill-rule="nonzero" mask="url(#mask-4)"></path>
                </g>
                <g id="Fill-4-Clipped" transform="translate(0.000000, 11.000000)">
                    <mask id="mask-6" fill="white">
                        <use xlink:href="#path-5"></use>
                    </mask>
                    <g id="path-2"></g>
                    <path d="M27.7304873,33.0359752 C21.7657373,23.8593471 17.4776949,13.4844298 15.3030508,2.3470413 C6.83729237,2.3470413 0,9.2168678 0,17.690876 L0,19.5374132 C1.81723729,24.9450992 3.72498447,28.0573636 6.34512853,33.0359752" id="Fill-4" fill="#89C8A3" fill-rule="nonzero" mask="url(#mask-6)"></path>
                </g>
            </g>
            <path d="M56.2873729,43.9752972 C47.5187415,35.838479 41.0694788,25.3038179 37.8314237,13.3883633 L15.3030508,13.3883633 C17.5326483,24.5152146 21.7208517,34.9310162 27.7304873,44.0772972 L56.2873729,43.9752972" id="Fill-6" fill="#6EBE99" fill-rule="nonzero"></path>
            <path d="M91.127822,37.9695203 C77.8081271,34.9955038 66.8581398,25.705917 61.5473771,13.3883633 L37.8314237,13.3883633 C41.0111695,25.3194129 47.2553008,35.7246774 56.2873729,43.9752972 L78.9323644,44.0772972 C83.9155042,44.0772972 88.3407203,41.6790327 91.127822,37.9695203" id="Fill-7" fill="#4FB798" fill-rule="nonzero"></path>
            <path d="M91.127822,37.9695203 C93.059161,35.3997104 94.2043729,32.2006195 94.2043729,28.732198 C94.2043729,25.3286856 93.1011102,22.1843881 91.2343729,19.6390245 C90.1332076,20.6973799 88.6414958,21.3489997 86.997928,21.3489997 C83.6113729,21.3489997 80.8666398,18.5907848 80.8666398,15.1885369 C80.8666398,14.6178427 80.9455042,14.0661154 81.0898093,13.5413633 C80.3850636,13.4410493 79.6647966,13.3883633 78.9323644,13.3883633 L61.5473771,13.3883633 C66.8581398,25.705917 77.8081271,34.9955038 91.127822,37.9695203" id="Fill-8" fill="#50A18A" fill-rule="nonzero"></path>
            <path d="M19.675411,28.3381071 C20.7048432,28.3381071 21.3227542,27.8445451 21.3227542,27.0167435 C21.3227542,26.1889418 20.7048432,25.6953799 19.675411,25.6953799 L18.1543347,25.6953799 L18.1543347,28.3381071 L19.675411,28.3381071 Z M19.7228136,23.1968013 C22.4478305,23.1968013 24.0951737,24.6290162 24.0951737,27.0167435 C24.0951737,29.4044708 22.4478305,30.8371071 19.7228136,30.8371071 L18.1543347,30.8371071 L18.1543347,34.3388261 L15.4930805,34.3388261 L15.4930805,23.1968013 L19.7228136,23.1968013 Z" id="Fill-9" fill="#FFFFFE" fill-rule="nonzero"></path>
            <polyline id="Fill-10" fill="#FFFFFE" fill-rule="nonzero" points="34.3450297 31.8398261 34.3450297 34.3388261 26.4401314 34.3388261 26.4401314 23.1968013 29.1013856 23.1968013 29.1013856 31.8398261 34.3450297 31.8398261"></polyline>
            <polyline id="Fill-11" fill="#FFFFFE" fill-rule="nonzero" points="45.0072458 31.8398261 45.0072458 34.3388261 36.8485551 34.3388261 36.8485551 23.1968013 44.9120212 23.1968013 44.9120212 25.6953799 39.5102288 25.6953799 39.5102288 27.526322 43.7399619 27.526322 43.7399619 29.8659997 39.5102288 29.8659997 39.5102288 31.8398261 45.0072458 31.8398261"></polyline>
            <path d="M54.1005636,30.2482889 L53.3085636,28.0831071 C53.0711314,27.4466608 52.7858771,26.4439418 52.7699364,26.4439418 L52.7539958,26.4439418 C52.7384746,26.4439418 52.4528008,27.4466608 52.2153686,28.0831071 L51.4233686,30.2482889 L54.1005636,30.2482889 Z M54.9563263,32.5879666 L50.5676059,32.5879666 L49.9341737,34.3388261 L47.0665297,34.3388261 L51.5022331,23.1968013 L54.0212797,23.1968013 L58.4574025,34.3388261 L55.5897585,34.3388261 L54.9563263,32.5879666 Z" id="Fill-12" fill="#FFFFFE" fill-rule="nonzero"></path>
            <path d="M65.7926314,26.7301319 C65.5228983,25.7434294 64.6675551,25.2819005 63.8759746,25.2819005 C63.0835551,25.2819005 62.6237924,25.6797848 62.6237924,26.1257187 C62.6237924,26.8574212 63.7333475,27.1284377 65.0799153,27.6219997 C66.726839,28.2264129 68.4543051,29.1659088 68.4543051,31.0760906 C68.4543051,33.1135617 66.7113178,34.5622146 64.128928,34.5622146 C61.8158517,34.5622146 60.1685085,33.2724625 59.4394322,31.1873633 L61.9903602,30.5028675 C62.2756144,31.3466856 63.0676144,32.1905038 64.2400932,32.1905038 C65.1902415,32.1905038 65.6340636,31.7445699 65.6340636,31.2033799 C65.6340636,30.3115121 64.3348983,30.0889666 62.7508983,29.4841319 C61.4198517,28.9749749 59.8832542,28.2424294 59.8832542,26.2846195 C59.8832542,24.5497765 61.625822,22.9738344 64.0337034,22.9738344 C66.15675,22.9738344 67.8363941,24.2791815 68.3590805,26.030041 L65.7926314,26.7301319" id="Fill-13" fill="#FFFFFE" fill-rule="nonzero"></path>
            <polyline id="Fill-14" fill="#FFFFFE" fill-rule="nonzero" points="79.1953856 31.8398261 79.1953856 34.3388261 71.0366949 34.3388261 71.0366949 23.1968013 79.1005805 23.1968013 79.1005805 25.6953799 73.6983686 25.6953799 73.6983686 27.526322 77.9285212 27.526322 77.9285212 29.8659997 73.6983686 29.8659997 73.6983686 31.8398261 79.1953856 31.8398261"></polyline>
        </g>
    </g>
</svg>
