<svg version="1" xmlns="http://www.w3.org/2000/svg" width="666.667" height="666.667" viewBox="0 0 500.000000 500.000000"><path d="M234 33.1c-42 5.3-74.2 26.1-90.3 58.4-7.5 14.9-10.7 29.4-10.8 48.8-.1 35.6 17.5 76.5 53.4 124.2 3.4 4.4 6.3 8.2 6.7 8.5.3.3 3.7 4.3 7.5 9 10.4 12.8 19.1 22.3 36 39.8 6.1 6.2 11.2 11.8 11.3 12.3.8 2.2 3.6.2 14.3-10.9 38-38.8 65.3-74 83.1-107.2 8.7-16.2 17.7-39.5 19.3-50 .4-2.5.8-4.7 1-5 1.5-2.6 2.1-24.9 1-35.1-2.1-18-9.5-36.4-20.5-51.1-4.4-5.8-16-16.5-22.9-21.1-12.9-8.7-31-16.2-44.7-18.6-3.2-.6-7.5-1.3-9.4-1.7-5.1-.9-28.6-1.1-35-.3zM87.9 335c-.7.5-1.1 7.5-1.1 20.8V376l-3.1-2.4c-12-9.2-33.3-8.8-48.1.8-14.1 9.2-21.4 22.5-22.1 40.6-1.2 29.2 19.1 51.4 47.9 52.5 23.7.9 41.8-12.1 48.1-34.5 1.6-5.8 1.8-11.1 1.9-51.3.1-24.6-.2-45.3-.6-46-.7-1.2-21-1.8-22.9-.7zm-15.2 56.7c4.4 2 8.8 6.8 11.6 12.2 3.2 6.7 3.2 19.9-.2 26.3-8.1 15.9-27.7 19.1-38.9 6.3-5-5.6-6.5-10-6.5-19-.1-8.7.3-10.8 2.7-15.2 6.2-11.5 19.7-16 31.3-10.6zM155.3 368.6c-17.8 3.6-31.9 18.2-35.8 37-1.5 7.2-1.3 18.7.5 25.4 5.5 21 23.2 34.8 45.5 35.4 9.6.2 16.8-1.3 24.9-5.3 5.8-2.8 15.6-11.3 15.6-13.5 0-1-12-12.5-13.2-12.6-.4 0-3.7 2-7.2 4.4-9.5 6.5-19.7 8-28.9 4.1-4.9-2-10.3-7.8-12-12.9l-1.5-4.3h32.5c22.2 0 32.8-.4 33.5-1.1.7-.7 1.1-4.4 1.1-8.5-.4-32.7-25-54.3-55-48.1zm18.5 21.8c1.7.9 4.1 2.6 5.3 3.9 2.7 2.8 5.8 9.5 5.9 12.4v2.2l-21-.1-20.9-.2.5-2.5c.8-3.4 4.7-10.2 7.1-12.4 6-5.3 16.3-6.8 23.1-3.3zM258.8 367.5c-.2.2-1.9.5-3.8.8-6.3 1-7.9 1.5-14.1 4.8-22 11.8-30.9 42.9-19.1 67.7 3.5 7.4 13 16.9 20.5 20.5 15 7.2 34.4 6.7 48.3-1.2 6-3.5 13.4-10.3 13.4-12.4 0-1.3-12-12.7-13.4-12.7-.4 0-3 1.7-5.9 3.9-2.9 2.1-7.2 4.5-9.7 5.3-6.2 2.1-15.5 1.6-20.7-1-4.9-2.6-10.6-8.9-12-13.5l-1-3.3 32.5-.1c37.4 0 35 .6 34.7-9.5-.9-24.1-12.7-41.7-31.7-47.3-5-1.4-17.2-2.8-18-2zm12.7 22.8c6.2 3.4 10.8 9.6 11.6 15.7l.4 2.5-21.3.1c-21.1.1-21.2.1-20.6-2 2.5-8.4 8.5-15.4 14.4-17.2 4.8-1.5 11.9-1 15.5.9zM345 368.8c-14.3 3.8-23.7 12.4-28 25.7-1 2.9-1.3 12.6-1.3 36.3 0 17.7.3 32.5.7 32.9.9.9 21.3 1.1 22.8.2.8-.5 1.1-9.4 1.2-30.1.2-32.3.5-34 6.4-39 9.3-7.8 22.9-5.2 28.4 5.5 2.1 4 2.2 5.4 2.2 33.4.1 16 .5 29.5.9 29.9.9 1 21.4 1.2 22.9.3 1.5-1 1.4-61.6-.1-68.4-3.1-13-13.8-23-29.1-27-6.9-1.8-19.6-1.7-27 .3zM436.3 369.9c-13.6 4.6-21.3 14.5-21.3 27.4 0 13.9 8.7 23.2 26.5 28.2 15 4.2 21 7.2 21.9 11.1 2 7.6-9.3 11.6-22.2 7.7-4.5-1.3-12.9-5.3-16.5-7.8-1.2-.8-2.7-1.5-3.3-1.5-1.5 0-10.4 13.5-10.4 15.7 0 1.8 4.7 5.2 12.5 9.1 15.3 7.7 35.8 8.3 48.9 1.5 8.8-4.5 14-13.9 14-25.3.1-6.5-.3-8.2-2.7-12.3-4.5-7.7-11.9-12.2-28.1-17.3-8.9-2.7-15.3-6-16.9-8.5-1.7-2.8.1-6.9 3.6-8.4 6.1-2.5 15.9-.9 26.8 4.6 5.7 2.8 6.6 2.8 8.5-.6.6-1.1 2.3-4.2 3.7-6.8 4.1-7.3 3.8-8.2-4.5-12.1-4-1.9-9.9-4.1-13-4.9-8-2.1-21.1-2-27.5.2z"/></svg>