<svg version="1" xmlns="http://www.w3.org/2000/svg" width="666.667" height="666.667" viewBox="0 0 500.000000 500.000000"><path d="M235.6 5.7c-.1.1-3.3.4-7.1.8-3.9.3-8.1.7-9.5 1-1.4.3-4.3.8-6.5 1.1-2.2.2-6.8 1.1-10.1 1.9-3.4.8-7.3 1.6-8.6 1.9-4 .7-20.9 6.5-28.8 9.8-47.3 20.1-80.5 55.1-95.3 100.6-2 6.1-4.3 14.8-5.1 19.4-.8 4.6-1.8 9.9-2.2 11.8-1 5.4-1.3 42.3-.4 46.6.4 2.2 1.1 5.9 1.4 8.4 2.8 21.8 14.1 55.7 26.7 80 2.1 4.2 3.9 7.8 3.9 8.2 0 .5 11.6 21.1 14 24.8.5.8 2.1 3.5 3.6 6 7.1 11.8 35.7 52.9 38.3 55 .3.3 1.9 2.3 3.6 4.5 6.4 8.8 33.2 40.5 44 52.1.5.6 4.6 5.1 9 10s16 17 25.8 26.9l17.7 18 17.8-18.1c16.5-16.8 30.6-31.8 39.8-42.4 2.1-2.5 4.1-4.7 4.4-5 .3-.3 3.2-3.7 6.5-7.5 3.3-3.9 6.3-7.2 6.6-7.5.9-.8 21.3-26.1 26.5-33 16.1-20.9 33.3-46.5 45.1-67 5.2-9 14.4-26.4 14.8-28 .1-.3 1.6-3.7 3.4-7.5 7-15 14.7-36.5 17.7-49.2.9-3.7 1.8-7.7 2.1-8.8 2.2-9.4 4.2-28.8 4.1-41.4-.1-60.9-25.9-109.7-74.7-141.5-7.2-4.7-25.7-14.6-27.3-14.6-.4 0-3.1-1.1-6-2.4-11.5-5.1-28.4-9.6-49.1-13-8.4-1.4-45.1-2.9-46.1-1.9z"/></svg>