<svg width="20" height="20" viewBox="0 0 20 20" fill="none" xmlns="http://www.w3.org/2000/svg">
<path d="M6.50152 3.95749C7.61839 3.95749 8.52379 3.07157 8.52379 1.97874C8.52379 0.885914 7.61839 0 6.50152 0C5.38465 0 4.47925 0.885914 4.47925 1.97874C4.47925 3.07157 5.38465 3.95749 6.50152 3.95749Z" fill="#7DA9D4"/>
<path d="M17.9528 12.4436C15.8326 13.6569 14.561 11.8768 13.603 10.1632C13.5613 9.99817 13.4997 9.83086 13.4111 9.6619C12.6696 8.25063 11.8958 6.85352 11.0859 5.47815C12.6676 4.98445 14.114 5.43533 15.2513 6.99383C16.1763 8.26183 18.3399 7.04586 17.4042 5.76304C15.2028 2.74651 11.9204 1.99789 8.63417 3.90681C8.49751 3.98619 8.38778 4.07841 8.29993 4.17952C8.25011 4.19862 8.20063 4.2197 8.15182 4.24209C8.0182 4.26844 7.88053 4.31883 7.74151 4.39952C5.69871 5.58618 3.80031 5.36123 2.38257 3.41806C1.45693 2.15005 -0.706039 3.36602 0.230034 4.64884C2.0389 7.12787 4.57852 8.07147 7.25042 7.27048C8.08888 8.67945 8.88493 10.1134 9.64968 11.5626C8.51939 12.1281 7.47291 12.8316 6.50015 13.6599C6.45807 13.6958 6.42071 13.733 6.38537 13.7702C6.17365 13.8766 5.98684 14.0561 5.85523 14.3222C5.20156 15.6446 4.54722 16.9663 3.89355 18.2886C3.19141 19.7088 5.45064 20.7383 6.15009 19.3248C6.77144 18.0686 7.39347 16.8108 8.01517 15.5553C8.09932 15.5089 8.18279 15.4536 8.2629 15.3847C9.39117 14.4237 10.6834 13.6448 12.0988 13.1623C12.1684 13.1385 12.232 13.1102 12.292 13.0786C14.0248 15.2303 16.4422 16.4153 19.3369 14.7599C20.862 13.8878 19.4827 11.5689 17.9528 12.4436Z" fill="#7DA9D4"/>
</svg>
