<svg width="20" height="20" viewBox="0 0 20 20" fill="none" xmlns="http://www.w3.org/2000/svg">
<path d="M7.5 0L7 6.25H5.5L5 0H3.75L3.25 6.25H1.75L1.25 0H0V7.5C0 8.16304 0.263392 8.79893 0.732233 9.26777C1.20107 9.73661 1.83696 10 2.5 10V18.125C2.5 18.6223 2.69754 19.0992 3.04918 19.4508C3.40081 19.8025 3.87772 20 4.375 20C4.87228 20 5.3492 19.8025 5.70083 19.4508C6.05246 19.0992 6.25 18.6223 6.25 18.125V10C6.91304 10 7.54893 9.73661 8.01777 9.26777C8.48661 8.79893 8.75 8.16304 8.75 7.5V0H7.5Z" fill="#EA7927"/>
<path d="M18.75 0C17.0924 0 15.5027 0.65848 14.3306 1.83058C13.1585 3.00269 12.5 4.5924 12.5 6.25V13.75H15V18.125C15 18.6223 15.1975 19.0992 15.5492 19.4508C15.9008 19.8025 16.3777 20 16.875 20C17.3723 20 17.8492 19.8025 18.2008 19.4508C18.5525 19.0992 18.75 18.6223 18.75 18.125V0Z" fill="#EA7927"/>
</svg>
