<svg width="20" height="20" viewBox="0 0 20 20" fill="none" xmlns="http://www.w3.org/2000/svg">
<g clip-path="url(#clip0)">
<path d="M0.599998 9.1C1.7 6.2 4.6 4.7 7.8 5.3C10.9 2.2 15.2 0.1 19.5 0C19.8 0 20 0.2 20 0.5C19.9 4.8 17.8 9.1 14.8 12.2C15.3 15.3 13.9 18.3 11 19.4C11.5 18.1 11.6 16.6 11.2 15.1C10.7 15.4 10.2 15.7 9.7 15.9C9.5 16 9.3 16 9.1 15.8L4.1 10.8C4 10.7 4 10.5 4.1 10.3C4.3 9.8 4.6 9.3 4.9 8.9C3.4 8.5 1.9 8.6 0.599998 9.1ZM11.6 8.4C12.4 9.2 13.6 9.2 14.4 8.4C15.2 7.6 15.2 6.4 14.4 5.6C13.6 4.8 12.4 4.8 11.6 5.6C10.8 6.4 10.8 7.6 11.6 8.4Z" fill="#515B62"/>
<path d="M0.300112 14.4L2.4001 12.3C2.8001 11.9 3.4001 11.9 3.8001 12.3C4.2001 12.7 4.2001 13.3 3.8001 13.7L1.70011 15.8C1.30011 16.2 0.70011 16.2 0.300112 15.8C-0.0998869 15.4 -0.0998869 14.8 0.300112 14.4Z" fill="#515B62"/>
<path d="M4.20001 18.3L6.30001 16.2C6.7 15.8 7.3 15.8 7.7 16.2C8.1 16.6 8.1 17.2 7.7 17.6L5.60001 19.7C5.20001 20.1 4.60001 20.1 4.20001 19.7C3.80002 19.3 3.80002 18.7 4.20001 18.3Z" fill="#515B62"/>
<path d="M1.49984 17.2L4.39985 14.3C4.79985 13.9 5.39985 13.9 5.79985 14.3C6.19985 14.7 6.19985 15.3 5.79985 15.7L2.89984 18.6C2.49984 19 1.89984 19 1.49984 18.6C1.09984 18.2 1.09984 17.6 1.49984 17.2Z" fill="#515B62"/>
</g>
<defs>
<clipPath id="clip0">
<rect width="20" height="20" fill="white" transform="matrix(-1 0 0 1 20 0)"/>
</clipPath>
</defs>
</svg>
