<?xml version="1.0" encoding="utf-8"?>
<!-- Generator: Adobe Illustrator 22.0.1, SVG Export Plug-In . SVG Version: 6.00 Build 0)  -->
<svg version="1.1" id="Layer_1" xmlns="http://www.w3.org/2000/svg" xmlns:xlink="http://www.w3.org/1999/xlink" x="0px" y="0px"
	 viewBox="0 0 20 20" style="enable-background:new 0 0 20 20;" xml:space="preserve">
<style type="text/css">
	.st0{fill:#010101;}
</style>
<path class="st0" d="M17.4,6.8c0.7,0,1.3,0.4,1.5,1.1l0,0c0.2,0.6,0,1.3-0.6,1.7l0,0l-3.7,2.7l1.4,4.3c0.2,0.6,0,1.3-0.6,1.7l0,0
	c-0.3,0.2-0.6,0.3-0.9,0.3l0,0c-0.3,0-0.6-0.1-0.9-0.3l0,0L10,15.6l-3.7,2.7c-0.5,0.4-1.3,0.4-1.8,0l0,0C4,17.9,3.7,17.2,4,16.5l0,0
	l1.4-4.3L1.7,9.6C1.1,9.2,0.9,8.5,1.1,7.9l0,0c0.2-0.6,0.8-1.1,1.5-1.1l0,0h4.5l1.4-4.3C8.7,1.8,9.3,1.4,10,1.4l0,0
	c0.7,0,1.3,0.4,1.5,1.1l0,0l1.4,4.3H17.4z"/>
</svg>
