<svg width="48" height="48" viewBox="0 0 48 48" fill="none" xmlns="http://www.w3.org/2000/svg">
<path d="M2 41C2 41.5304 2.21071 42.0391 2.58579 42.4142C2.96086 42.7893 3.46957 43 4 43H43C43.7957 43 44.5587 42.6839 45.1213 42.1213C45.6839 41.5587 46 40.7956 46 40V15H2V41Z" fill="white"/>
<path d="M44 5H4C3.46957 5 2.96086 5.21071 2.58579 5.58579C2.21071 5.96086 2 6.46957 2 7V15H46V7C46 6.46957 45.7893 5.96086 45.4142 5.58579C45.0391 5.21071 44.5304 5 44 5Z" fill="#65AFBB"/>
<path d="M10 10V2C10 1.73478 10.1054 1.48043 10.2929 1.29289C10.4804 1.10536 10.7348 1 11 1H13C13.2652 1 13.5196 1.10536 13.7071 1.29289C13.8946 1.48043 14 1.73478 14 2V10C14 10.2652 13.8946 10.5196 13.7071 10.7071C13.5196 10.8946 13.2652 11 13 11H11C10.7348 11 10.4804 10.8946 10.2929 10.7071C10.1054 10.5196 10 10.2652 10 10Z" fill="#515B62"/>
<path d="M34 10V2C34 1.73478 34.1054 1.48043 34.2929 1.29289C34.4804 1.10536 34.7348 1 35 1H37C37.2652 1 37.5196 1.10536 37.7071 1.29289C37.8946 1.48043 38 1.73478 38 2V10C38 10.2652 37.8946 10.5196 37.7071 10.7071C37.5196 10.8946 37.2652 11 37 11H35C34.7348 11 34.4804 10.8946 34.2929 10.7071C34.1054 10.5196 34 10.2652 34 10Z" fill="#515B62"/>
<path d="M27 37C27 38.9778 27.5865 40.9112 28.6853 42.5557C29.7841 44.2002 31.3459 45.4819 33.1732 46.2388C35.0004 46.9957 37.0111 47.1937 38.9509 46.8079C40.8907 46.422 42.6725 45.4696 44.0711 44.0711C45.4696 42.6725 46.422 40.8907 46.8079 38.9509C47.1937 37.0111 46.9957 35.0004 46.2388 33.1732C45.4819 31.3459 44.2002 29.7841 42.5557 28.6853C40.9112 27.5865 38.9778 27 37 27C34.3487 27.0029 31.8069 28.0574 29.9321 29.9321C28.0574 31.8069 27.0029 34.3487 27 37Z" fill="#00e4ff"/>
<path d="M42.707 33.293C42.8945 33.4805 42.9998 33.7348 42.9998 34C42.9998 34.2652 42.8945 34.5195 42.707 34.707L35.707 41.707C35.5195 41.8945 35.2652 41.9998 35 41.9998C34.7349 41.9998 34.4806 41.8945 34.293 41.707L31.293 38.707C31.1109 38.5184 31.0101 38.2658 31.0124 38.0036C31.0146 37.7414 31.1198 37.4906 31.3052 37.3052C31.4906 37.1198 31.7414 37.0146 32.0036 37.0123C32.2658 37.01 32.5184 37.1108 32.707 37.293L35 39.586L41.293 33.293C41.4806 33.1055 41.7349 33.0002 42 33.0002C42.2652 33.0002 42.5195 33.1055 42.707 33.293Z" fill="white"/>
</svg>
