<svg width="52" height="47" viewBox="0 0 52 47" fill="none" xmlns="http://www.w3.org/2000/svg">
<g filter="url(#filter0_d)">
<path d="M5.79296 8.42014H42.9657C44.6415 8.42014 46 9.77701 46 11.451V37.9695C46 39.6432 44.6415 41 42.9657 41H5.79296C3.69827 41 2 39.3042 2 37.2117V12.2088C2 10.1163 3.69827 8.42014 5.79296 8.42014Z" fill="white"/>
<path d="M5.79296 8.92014H42.9657C44.3659 8.92014 45.5 10.0537 45.5 11.451V37.9695C45.5 39.3665 44.366 40.5 42.9657 40.5H5.79296C3.97379 40.5 2.5 39.0275 2.5 37.2117V12.2088C2.5 10.393 3.97385 8.92014 5.79296 8.92014Z" stroke="#262626" stroke-opacity="0.1"/>
</g>
<path d="M6.552 8.42014H11.1036V41H6.552V8.42014Z" fill="#65AFBB"/>
<path d="M36.8969 8.42014H41.4485V41H36.8969V8.42014Z" fill="#65AFBB"/>
<path d="M32.3449 25.0889C32.3449 29.6918 28.6086 33.4235 23.9998 33.4235C19.3911 33.4235 15.6552 29.6918 15.6552 25.0889C15.6552 20.486 19.3911 16.7547 23.9998 16.7547C28.6086 16.7547 32.3449 20.486 32.3449 25.0889Z" fill="#65AFBB"/>
<path d="M26.8394 28.0273L23.9997 29.648L21.16 28.0273C19.6907 27.1884 18.9394 25.4919 19.3066 23.842C19.5793 22.6163 20.7948 21.8435 22.0217 22.1157C22.4447 22.2093 22.8317 22.4215 23.1379 22.7273L23.9997 23.5865L24.8614 22.7259C25.7504 21.8381 27.1912 21.8381 28.0801 22.7259C28.3862 23.0317 28.5987 23.4182 28.6927 23.8403C29.0606 25.4909 28.3094 27.1885 26.8394 28.0273Z" fill="#3CD9B8"/>
<path d="M16.4135 0.0860023H11.1032C9.84641 0.0860023 8.82751 1.10353 8.82751 2.35884V8.42023H11.8619V3.11648H16.4135V0.0860023Z" fill="#656F76"/>
<path d="M36.1383 0.0859968H31.5867V3.11656H36.1383V8.42022H39.1726V2.35875C39.1726 1.10344 38.1538 0.0859108 36.8969 0.0859108H36.1383V0.0859968Z" fill="#656F76"/>
<path d="M11.1035 13.7239C10.6846 13.7239 10.3448 13.385 10.3448 12.9662V8.42023C10.3448 8.00185 10.6845 7.6625 11.1035 7.6625C11.5225 7.6625 11.8622 8.00176 11.8622 8.42023V12.9662C11.8622 13.3849 11.5224 13.7239 11.1035 13.7239Z" fill="#12B996"/>
<path d="M11.1032 11.451L13.3792 12.9662V19.0275H8.82751V12.9662L11.1032 11.451Z" fill="#3CD9B8"/>
<path d="M15.6552 0H32.3449V3.2005H15.6552V0Z" fill="#65AFBB"/>
<defs>
<filter id="filter0_d" x="0" y="6.42014" width="52" height="40.5799" filterUnits="userSpaceOnUse" color-interpolation-filters="sRGB">
<feFlood flood-opacity="0" result="BackgroundImageFix"/>
<feColorMatrix in="SourceAlpha" type="matrix" values="0 0 0 0 0 0 0 0 0 0 0 0 0 0 0 0 0 0 127 0"/>
<feOffset dx="2" dy="2"/>
<feGaussianBlur stdDeviation="2"/>
<feColorMatrix type="matrix" values="0 0 0 0 0 0 0 0 0 0 0 0 0 0 0 0 0 0 0.1 0"/>
<feBlend mode="normal" in2="BackgroundImageFix" result="effect1_dropShadow"/>
<feBlend mode="normal" in="SourceGraphic" in2="effect1_dropShadow" result="shape"/>
</filter>
</defs>
</svg>
