<svg width="53" height="53" viewBox="0 0 53 53" fill="none" xmlns="http://www.w3.org/2000/svg">
<g filter="url(#filter0_d)">
<path d="M39.2326 31.227C39.2334 30.8871 39.1395 30.5543 38.9611 30.2649L37.2314 27.4796C37.0158 27.0513 36.9041 26.578 36.9056 26.0985V17.5174C36.9056 11.9467 32.3911 7.43115 26.8217 7.43115H22.1676C16.5982 7.43115 12.0838 11.9467 12.0838 17.5174V26.0986C12.0854 26.5781 11.9737 27.0514 11.758 27.4796L10.0282 30.265C9.84978 30.5544 9.75591 30.8872 9.75672 31.2271C9.76059 32.2241 10.5673 33.0309 11.564 33.0348H37.4252C38.422 33.0309 39.2287 32.224 39.2326 31.227Z" fill="#656F76"/>
<path d="M36.7948 27.7244L36.7847 27.7044C36.5339 27.2061 36.4039 26.6556 36.4056 26.0976V26.0985H36.9056L36.4056 26.097L36.7948 27.7244ZM36.7948 27.7244L36.8066 27.7434L38.5355 30.5274C38.5357 30.5276 38.5358 30.5278 38.5359 30.528C38.6651 30.7378 38.7331 30.9788 38.7326 31.2252C38.7297 31.9473 38.1457 32.5315 37.4241 32.5348H11.5651C10.8436 32.5315 10.2597 31.9475 10.2567 31.2255C10.2562 30.979 10.3242 30.7379 10.4534 30.5281C10.4535 30.5278 10.4537 30.5276 10.4538 30.5274L12.1827 27.7434L12.1945 27.7245L12.2045 27.7045C12.4555 27.2063 12.5855 26.6557 12.5838 26.0978M36.7948 27.7244L12.5838 26.0978M12.5838 26.0978V26.0986H12.0838L12.5838 26.0969C12.5838 26.0972 12.5838 26.0975 12.5838 26.0978Z" stroke="black" stroke-opacity="0.1"/>
<path d="M26.8218 7.43107L30.7001 2H18.2893L22.1677 7.43107V8.9828H26.8218V7.43107Z" fill="#656F76"/>
<path d="M26.4149 7.14051L26.3218 7.27088V7.43107V8.4828H22.6677V7.43107V7.27087L22.5746 7.1405L19.2608 2.5H29.7286L26.4149 7.14051Z" stroke="black" stroke-opacity="0.1"/>
<path d="M28.3732 19.069V18.5725C28.3693 17.1348 27.2042 15.9695 25.7668 15.9656H25.2704V14.4138H23.719V15.9656H23.2226C21.783 15.9609 20.6124 17.1239 20.6078 18.5639C20.6039 19.6571 21.2826 20.6363 22.3074 21.0164L23.7191 21.544V24.5001H23.2227C22.6402 24.5001 22.1677 24.0275 22.1677 23.4449V22.9483H20.6164V23.4449C20.6202 24.8826 21.7853 26.0479 23.2227 26.0518H25.767C27.2066 26.0565 28.3772 24.8935 28.3818 23.4535C28.3857 22.3603 27.707 21.3811 26.6822 21.001L25.2705 20.4734V17.5174H25.7669C26.3494 17.5174 26.8219 17.9899 26.8219 18.5726V19.0691H28.3732V19.069ZM26.1392 22.4518C26.5488 22.6108 26.8195 23.0051 26.8218 23.4449C26.8218 24.0276 26.3494 24.5001 25.7669 24.5001H25.2705V22.126L26.1392 22.4518ZM23.7192 19.8914L22.8504 19.5656C22.4408 19.4065 22.1701 19.0123 22.1678 18.5724C22.1678 17.9897 22.6402 17.5172 23.2227 17.5172H23.7191V19.8914H23.7192Z" fill="#3CD9B8"/>
<path d="M23.2234 25.5518C22.0631 25.5483 21.1221 24.6086 21.1164 23.4483H21.6677C21.6696 24.3054 22.3651 25.0001 23.2227 25.0001H23.7191H24.2191V24.5001V21.544V21.1971L23.8941 21.0756L22.4824 20.548L22.4813 20.5476C21.6531 20.2404 21.1047 19.4491 21.1078 18.5657L21.1078 18.5655C21.1115 17.4016 22.0576 16.4618 23.221 16.4656V16.4656H23.2226H23.719H24.219V15.9656V14.9138H24.7704V15.9656V16.4656H25.2704H25.7661C26.9264 16.4691 27.8674 17.4088 27.8731 18.5691H27.3219C27.32 17.712 26.6245 17.0174 25.7669 17.0174H25.2705H24.7705V17.5174V20.4734V20.8203L25.0955 20.9417L26.5072 21.4693L26.5083 21.4698C27.3365 21.7769 27.8849 22.5682 27.8818 23.4517L27.8818 23.4518C27.878 24.6158 26.932 25.5556 25.7686 25.5518H25.767H23.2234ZM26.3202 21.9857L26.3202 21.9857L26.3148 21.9837L25.4461 21.6578L24.7705 21.4044V22.126V24.5001V25.0001H25.2705H25.7669C26.6257 25.0001 27.3218 24.3036 27.3218 23.4449L27.3218 23.4423C27.3184 22.7978 26.9219 22.2193 26.3202 21.9857ZM23.7192 20.3914L23.8099 19.8914H24.2191V17.5172V17.0172H23.7191H23.2227C22.3639 17.0172 21.6678 17.7137 21.6678 18.5724L21.6678 18.575C21.6712 19.2196 22.0677 19.7981 22.6694 20.0317L22.6694 20.0317L22.6748 20.0337L23.2191 20.2379V20.3914H23.7191H23.7192Z" stroke="black" stroke-opacity="0.1"/>
<path d="M40.0086 9.75862C39.7449 8.16652 38.4976 6.91894 36.9059 6.65513C38.4976 6.39131 39.7449 5.14373 40.0086 3.55164C40.2724 5.14373 41.5196 6.39127 43.1113 6.65513C41.5196 6.91894 40.2724 8.16661 40.0086 9.75862Z" fill="#3CD9B8"/>
<path d="M41.6297 6.65512C40.9523 7.03753 40.3909 7.59899 40.0086 8.27655C39.6263 7.59898 39.0649 7.03752 38.3875 6.65513C39.0649 6.27273 39.6263 5.71128 40.0086 5.03372C40.3909 5.71129 40.9523 6.27273 41.6297 6.65512Z" stroke="black" stroke-opacity="0.1"/>
<path d="M5.10273 25.276C4.83898 23.684 3.59171 22.4363 2 22.1726C3.59171 21.9088 4.83898 20.6612 5.10273 19.0691C5.36647 20.6612 6.61375 21.9087 8.20545 22.1726C6.61375 22.4363 5.36638 23.684 5.10273 25.276Z" fill="#3CD9B8"/>
<path d="M6.72384 22.1725C6.04638 22.5549 5.48504 23.1164 5.10271 23.7939C4.72039 23.1164 4.15906 22.5549 3.48163 22.1726C4.15907 21.7902 4.7204 21.2287 5.10273 20.5512C5.48506 21.2287 6.04639 21.7902 6.72384 22.1725Z" stroke="black" stroke-opacity="0.1"/>
<path d="M46.6554 29.0701C46.0186 27.9978 44.6502 27.6184 43.5527 28.2089L32.5458 32.9106C32.3519 32.9928 32.1433 33.0355 31.9331 33.0347H18.2889C17.4318 33.0347 16.7375 32.3403 16.7375 31.483C16.7375 30.6256 17.4318 29.9313 18.2889 29.9313H24.4943C27.065 29.9313 29.1484 27.8473 29.1484 25.276H16.2411C14.1018 25.2776 12.0789 26.2513 10.7416 27.9217L5.87805 33.8106L11.3544 43.8503L32.4296 38.7839C33.3402 38.5736 34.2214 38.2508 35.0514 37.8218L45.9108 32.2587C46.9913 31.5799 47.3233 30.1578 46.6554 29.0701Z" fill="white"/>
<path d="M46.2255 29.3254L46.2255 29.3254C45.7255 28.4835 44.6512 28.1857 43.7896 28.6492L43.7698 28.6598L43.7491 28.6687L32.7422 33.3704L32.741 33.371C32.4862 33.4789 32.2111 33.5356 31.9324 33.5347M46.2255 29.3254L31.9331 33.0347M46.2255 29.3254L46.2293 29.3317C46.7503 30.1801 46.4966 31.2872 45.6622 31.8243M46.2255 29.3254L45.6622 31.8243M31.9324 33.5347C31.932 33.5347 31.9316 33.5347 31.9312 33.5347L31.9331 33.0347M31.9324 33.5347H31.9331V33.0347M31.9324 33.5347H18.2889C17.1555 33.5347 16.2375 32.6163 16.2375 31.483C16.2375 30.3496 17.1555 29.4313 18.2889 29.4313H24.4943C26.6196 29.4313 28.3719 27.8354 28.6187 25.776M31.9331 33.0347H18.2889C17.4318 33.0347 16.7375 32.3403 16.7375 31.483C16.7375 30.6256 17.4318 29.9313 18.2889 29.9313H24.4943C26.8961 29.9313 28.8726 28.1121 29.1219 25.776H28.6187M28.6187 25.776C28.6383 25.6121 28.6484 25.4452 28.6484 25.276H29.1484H16.2411M28.6187 25.776H16.2413M16.2413 25.776C16.2414 25.776 16.2414 25.776 16.2415 25.776L16.2411 25.276M16.2413 25.776H16.2411V25.276M16.2413 25.776C14.2539 25.7775 12.3745 26.6821 11.1319 28.2342L11.1272 28.2402L11.1271 28.2401L6.47899 33.8681M16.2411 25.276C14.1018 25.2776 12.0789 26.2513 10.7416 27.9217L5.87805 33.8106M6.47899 33.8681L6.317 33.5711L5.87805 33.8106M6.47899 33.8681L6.26357 34.129L5.87805 33.8106M6.47899 33.8681L11.6099 43.2746M5.87805 33.8106L11.3544 43.8503M11.3544 43.8503L11.2375 43.3641L11.6099 43.2746M11.3544 43.8503L11.7933 43.6108L11.6099 43.2746M11.3544 43.8503L45.6622 31.8243M11.6099 43.2746L32.3127 38.2977L32.317 38.2967L32.317 38.2967C33.1873 38.0957 34.0291 37.7874 34.8217 37.3776L34.8234 37.3767L45.6622 31.8243" stroke="black" stroke-opacity="0.1"/>
<path d="M2 33.0346V47.0002H12.0838L14.4108 44.6726L5.10273 30.707L2 33.0346Z" fill="#12545F"/>
<path d="M11.8767 46.5002H2.5V33.2845L4.97987 31.4242L13.7675 44.6089L11.8767 46.5002Z" stroke="black" stroke-opacity="0.1"/>
<path d="M2 47.0004H12.0838L14.4108 44.6728L12.7043 42.1124C9.25419 43.5369 5.66744 44.6053 2 45.3013V47.0004Z" fill="#12545F"/>
<path d="M13.7675 44.6091L11.8767 46.5004H2.5V45.7138C5.92504 45.0372 9.27836 44.0382 12.515 42.7299L13.7675 44.6091Z" stroke="black" stroke-opacity="0.1"/>
<path d="M8.9812 44.6751C9.838 44.6751 10.5326 43.9803 10.5326 43.1233C10.5326 42.2663 9.838 41.5715 8.9812 41.5715C8.12439 41.5715 7.42981 42.2663 7.42981 43.1233C7.42981 43.9803 8.12439 44.6751 8.9812 44.6751Z" fill="#3CD9B8"/>
<path d="M10.0326 43.1233C10.0326 43.7043 9.56175 44.1751 8.9812 44.1751C8.40065 44.1751 7.92981 43.7043 7.92981 43.1233C7.92981 42.5423 8.40065 42.0715 8.9812 42.0715C9.56175 42.0715 10.0326 42.5423 10.0326 43.1233Z" stroke="black" stroke-opacity="0.1"/>
</g>
<defs>
<filter id="filter0_d" x="0" y="0" width="53" height="53.0004" filterUnits="userSpaceOnUse" color-interpolation-filters="sRGB">
<feFlood flood-opacity="0" result="BackgroundImageFix"/>
<feColorMatrix in="SourceAlpha" type="matrix" values="0 0 0 0 0 0 0 0 0 0 0 0 0 0 0 0 0 0 127 0"/>
<feOffset dx="2" dy="2"/>
<feGaussianBlur stdDeviation="2"/>
<feColorMatrix type="matrix" values="0 0 0 0 0 0 0 0 0 0 0 0 0 0 0 0 0 0 0.1 0"/>
<feBlend mode="normal" in2="BackgroundImageFix" result="effect1_dropShadow"/>
<feBlend mode="normal" in="SourceGraphic" in2="effect1_dropShadow" result="shape"/>
</filter>
</defs>
</svg>
