<svg width="48" height="48" viewBox="0 0 48 48" fill="none" xmlns="http://www.w3.org/2000/svg">
<path d="M33.5 10C35.9853 10 38 7.98528 38 5.5C38 3.01472 35.9853 1 33.5 1C31.0147 1 29 3.01472 29 5.5C29 7.98528 31.0147 10 33.5 10Z" fill="#5A7A84"/>
<path d="M41.9999 18.0001H34.9999C34.9999 18.0001 30.9549 12.2821 29.8299 11.1711C29.0785 10.4236 28.0617 10.004 27.0019 10.004C25.942 10.004 24.9253 10.4236 24.1739 11.1711L15.1739 20.1711C14.7447 20.5941 14.4173 21.1092 14.2166 21.6775C14.016 22.2457 13.9473 22.8522 14.0157 23.4509C14.0841 24.0497 14.2878 24.625 14.6115 25.1334C14.9352 25.6417 15.3703 26.0698 15.8839 26.3851L21.4999 30.3101V39.5001C21.4999 40.1631 21.7633 40.799 22.2321 41.2678C22.701 41.7367 23.3368 42.0001 23.9999 42.0001C24.6629 42.0001 25.2988 41.7367 25.7676 41.2678C26.2365 40.799 26.4999 40.1631 26.4999 39.5001V29.0001C26.4998 28.596 26.4018 28.1979 26.2142 27.84C26.0266 27.4821 25.7551 27.175 25.4229 26.9451L22.0489 24.6081L29.4179 17.2381L32.3999 21.2001C32.5862 21.4484 32.8277 21.6501 33.1054 21.7889C33.3832 21.9278 33.6894 22.0001 33.9999 22.0001H41.9999C42.5303 22.0001 43.039 21.7893 43.4141 21.4143C43.7892 21.0392 43.9999 20.5305 43.9999 20.0001C43.9999 19.4696 43.7892 18.9609 43.4141 18.5858C43.039 18.2108 42.5303 18.0001 41.9999 18.0001Z" fill="#5A7A84"/>
<path d="M10 45C14.4183 45 18 41.4183 18 37C18 32.5817 14.4183 29 10 29C5.58172 29 2 32.5817 2 37C2 41.4183 5.58172 45 10 45Z" fill="#E6E6E6"/>
<path d="M10 28C8.21997 28 6.47991 28.5278 4.99987 29.5168C3.51983 30.5057 2.36628 31.9113 1.68509 33.5559C1.0039 35.2004 0.82567 37.01 1.17294 38.7558C1.5202 40.5016 2.37737 42.1053 3.63604 43.364C4.89472 44.6226 6.49836 45.4798 8.24419 45.8271C9.99002 46.1743 11.7996 45.9961 13.4442 45.3149C15.0887 44.6337 16.4943 43.4802 17.4832 42.0001C18.4722 40.5201 19 38.78 19 37C19 34.6131 18.0518 32.3239 16.364 30.636C14.6761 28.9482 12.387 28 10 28ZM10 44C8.61553 44 7.26216 43.5895 6.11101 42.8203C4.95987 42.0511 4.06266 40.9579 3.53285 39.6788C3.00303 38.3997 2.86441 36.9922 3.13451 35.6344C3.4046 34.2765 4.07129 33.0292 5.05026 32.0503C6.02922 31.0713 7.2765 30.4046 8.63437 30.1345C9.99224 29.8644 11.3997 30.003 12.6788 30.5328C13.9579 31.0627 15.0511 31.9599 15.8203 33.111C16.5895 34.2622 17 35.6155 17 37C17 38.8565 16.2625 40.637 14.9498 41.9498C13.637 43.2625 11.8565 44 10 44Z" fill="#444444"/>
<path d="M10 39C11.1046 39 12 38.1046 12 37C12 35.8954 11.1046 35 10 35C8.89543 35 8 35.8954 8 37C8 38.1046 8.89543 39 10 39Z" fill="#444444"/>
<path d="M38 45C42.4183 45 46 41.4183 46 37C46 32.5817 42.4183 29 38 29C33.5817 29 30 32.5817 30 37C30 41.4183 33.5817 45 38 45Z" fill="#E6E6E6"/>
<path d="M38 28C36.22 28 34.4799 28.5278 32.9999 29.5168C31.5198 30.5057 30.3663 31.9113 29.6851 33.5559C29.0039 35.2004 28.8257 37.01 29.1729 38.7558C29.5202 40.5016 30.3774 42.1053 31.636 43.364C32.8947 44.6226 34.4984 45.4798 36.2442 45.8271C37.99 46.1743 39.7996 45.9961 41.4442 45.3149C43.0887 44.6337 44.4943 43.4802 45.4832 42.0001C46.4722 40.5201 47 38.78 47 37C47 34.6131 46.0518 32.3239 44.364 30.636C42.6761 28.9482 40.387 28 38 28ZM38 44C36.6155 44 35.2622 43.5895 34.111 42.8203C32.9599 42.0511 32.0627 40.9579 31.5328 39.6788C31.003 38.3997 30.8644 36.9922 31.1345 35.6344C31.4046 34.2765 32.0713 33.0292 33.0503 32.0503C34.0292 31.0713 35.2765 30.4046 36.6344 30.1345C37.9922 29.8644 39.3997 30.003 40.6788 30.5328C41.9579 31.0627 43.0511 31.9599 43.8203 33.111C44.5895 34.2622 45 35.6155 45 37C45 38.8565 44.2625 40.637 42.9498 41.9498C41.637 43.2625 39.8565 44 38 44Z" fill="#444444"/>
<path d="M38 39C39.1046 39 40 38.1046 40 37C40 35.8954 39.1046 35 38 35C36.8954 35 36 35.8954 36 37C36 38.1046 36.8954 39 38 39Z" fill="#444444"/>
</svg>
