<svg width="70" height="70" viewBox="0 0 70 70" fill="none" xmlns="http://www.w3.org/2000/svg">
<path d="M1 66.1666C1 67.7774 2.30586 69.0833 3.91667 69.0833H65.1667C66.7775 69.0833 68.0833 67.7774 68.0833 66.1666V22.4166H1V66.1666Z" fill="#E6E6E6"/>
<path d="M65.1667 7.83337H3.91667C2.30586 7.83337 1 9.13915 1 10.75V22.4167H68.0833V10.75C68.0833 9.13915 66.7775 7.83337 65.1667 7.83337Z" fill="#E86C60"/>
<path d="M14.125 15.125V3.45833C14.125 2.65293 14.7779 2 15.5833 2H18.5C19.3054 2 19.9583 2.65293 19.9583 3.45833V15.125C19.9583 15.9304 19.3054 16.5833 18.5 16.5833H15.5833C14.7779 16.5833 14.125 15.9304 14.125 15.125Z" fill="#444444"/>
<path d="M49.125 15.125V3.45833C49.125 2.65293 49.7779 2 50.5833 2H53.5C54.3054 2 54.9583 2.65293 54.9583 3.45833V15.125C54.9583 15.9304 54.3054 16.5833 53.5 16.5833H50.5833C49.7779 16.5833 49.125 15.9304 49.125 15.125Z" fill="#444444"/>
<path d="M57.875 50.125H53.5V41.375H57.875C58.6811 41.375 59.3333 40.7228 59.3333 39.9167C59.3333 39.1106 58.6811 38.4584 57.875 38.4584H53.5V31.1667C53.5 30.3606 52.8477 29.7084 52.0417 29.7084C51.2356 29.7084 50.5833 30.3606 50.5833 31.1667V38.4584H41.8333V31.1667C41.8333 30.3606 41.1811 29.7084 40.375 29.7084C39.5689 29.7084 38.9167 30.3606 38.9167 31.1667V38.4584H30.1667V31.1667C30.1667 30.3606 29.5144 29.7084 28.7083 29.7084C27.9023 29.7084 27.25 30.3606 27.25 31.1667V38.4584H18.5V31.1667C18.5 30.3606 17.8477 29.7084 17.0417 29.7084C16.2356 29.7084 15.5833 30.3606 15.5833 31.1667V38.4584H11.2083C10.4023 38.4584 9.75 39.1106 9.75 39.9167C9.75 40.7228 10.4023 41.375 11.2083 41.375H15.5833V50.125H11.2083C10.4023 50.125 9.75 50.7773 9.75 51.5834C9.75 52.3894 10.4023 53.0417 11.2083 53.0417H15.5833V60.3334C15.5833 61.1394 16.2356 61.7917 17.0417 61.7917C17.8477 61.7917 18.5 61.1394 18.5 60.3334V53.0417H27.25V60.3334C27.25 61.1394 27.9023 61.7917 28.7083 61.7917C29.5144 61.7917 30.1667 61.1394 30.1667 60.3334V53.0417H38.9167V60.3334C38.9167 61.1394 39.5689 61.7917 40.375 61.7917C41.1811 61.7917 41.8333 61.1394 41.8333 60.3334V53.0417H50.5833V60.3334C50.5833 61.1394 51.2356 61.7917 52.0417 61.7917C52.8477 61.7917 53.5 61.1394 53.5 60.3334V53.0417H57.875C58.6811 53.0417 59.3333 52.3894 59.3333 51.5834C59.3333 50.7773 58.6811 50.125 57.875 50.125ZM18.5 50.125V41.375H27.25V50.125H18.5ZM30.1667 50.125V41.375H38.9167V50.125H30.1667ZM41.8333 50.125V41.375H50.5833V50.125H41.8333Z" fill="#E6E6E6"/>
</svg>
