<svg width="48" height="48" viewBox="0 0 48 48" fill="none" xmlns="http://www.w3.org/2000/svg">
<path d="M45.9287 20.061C45.3574 19.3867 44.5225 19 43.6387 19H32.5205L26.1178 9.85309C25.7435 9.31843 25.1319 9 24.4793 9H12.0312C10.3955 9 8.92469 9.99584 8.31725 11.5145L5.32324 19H4C2.34315 19 1 20.3432 1 22V29H45.5142L46.5986 22.4932C46.7441 21.6216 46.5 20.7354 45.9287 20.061Z" fill="#E86C60"/>
<path d="M1 30C1 31.6569 2.34314 33 4 33H43.1533C44.1338 33 44.9629 32.2978 45.126 31.3291L45.5142 29H1V30Z" fill="#C94F49"/>
<path d="M30.0795 19L24.4796 11H12.0313C11.209 11 10.4796 11.4937 10.1749 12.2573L7.47778 19H30.0795Z" fill="#E6E6E6"/>
<path d="M10 39C6.69141 39 4 36.3086 4 33C4 29.6914 6.69141 27 10 27C13.3086 27 16 29.6914 16 33C16 36.3086 13.3086 39 10 39Z" fill="#444444"/>
<path d="M37 39C33.6914 39 31 36.3086 31 33C31 29.6914 33.6914 27 37 27C40.3086 27 43 29.6914 43 33C43 36.3086 40.3086 39 37 39Z" fill="#444444"/>
<path d="M10 36C8.3457 36 7 34.6543 7 33C7 31.3457 8.3457 30 10 30C11.6543 30 13 31.3457 13 33C13 34.6543 11.6543 36 10 36Z" fill="#E6E6E6"/>
<path d="M37 36C35.3457 36 34 34.6543 34 33C34 31.3457 35.3457 30 37 30C38.6543 30 40 31.3457 40 33C40 34.6543 38.6543 36 37 36Z" fill="#E6E6E6"/>
<path d="M43 24H37C36.4473 24 36 23.5523 36 23C36 22.4477 36.4473 22 37 22H43C43.5527 22 44 22.4477 44 23C44 23.5523 43.5527 24 43 24Z" fill="#C94F49"/>
<path d="M16 11H14V19H16V11Z" fill="#E86C60"/>
</svg>
