<svg width="40" height="20" viewBox="0 0 40 20" fill="none" xmlns="http://www.w3.org/2000/svg">
<rect x="0.875" y="0.375" width="38.5" height="19.25" rx="2" fill="#097DA8"/>
<path d="M9.54565 15.3087V11.3232H12.2622C14.3955 11.3232 15.5926 9.8087 15.5926 8.00725C15.5926 6.18985 14.4108 4.67536 12.2622 4.67536H7.75V15.3087H9.54565ZM12.0166 9.68116H9.54565V6.31739H12.0166C13.0295 6.31739 13.7509 6.98696 13.7509 8.00725C13.7509 9.01159 13.0295 9.68116 12.0166 9.68116Z" fill="white"/>
<path d="M24.0548 15.3087V13.6667H19.5426V4.67536H17.747V15.3087H24.0548Z" fill="white"/>
<path d="M29.9154 15.5C32.6625 15.5 33.875 13.9696 33.875 12.2C33.875 8.24638 27.9202 9.47391 27.9202 7.48116C27.9202 6.7 28.5955 6.15797 29.6391 6.15797C30.7134 6.15797 31.8031 6.54058 32.6165 7.38551L33.6294 5.99855C32.6932 5.04203 31.3887 4.5 29.8079 4.5C27.5518 4.5 26.0785 5.85507 26.0785 7.62464C26.0785 11.5304 32.0333 10.1435 32.0333 12.3754C32.0333 13.0928 31.4654 13.842 29.9921 13.842C28.5648 13.842 27.4444 13.1406 26.7538 12.3594L25.7408 13.8101C26.6617 14.7986 28.0276 15.5 29.9154 15.5Z" fill="white"/>
</svg>
