<svg width="65" height="61" viewBox="0 0 65 61" fill="none" xmlns="http://www.w3.org/2000/svg">
<path d="M19.9998 59C19.7346 58.9999 19.4803 58.8945 19.2928 58.707C18.6268 58.042 2.99983 42.285 2.99983 31C2.97792 28.7614 3.40267 26.5409 4.24924 24.4685C5.09581 22.3961 6.34719 20.5133 7.93017 18.9303C9.51315 17.3473 11.3959 16.0959 13.4684 15.2494C15.5408 14.4028 17.7613 13.978 19.9998 14C22.2384 13.978 24.4589 14.4028 26.5313 15.2494C28.6037 16.0959 30.4865 17.3473 32.0695 18.9303C33.6525 20.5133 34.9039 22.3961 35.7504 24.4685C36.597 26.5409 37.0217 28.7614 36.9998 31C36.9998 42.285 21.3728 58.042 20.7068 58.707C20.5193 58.8945 20.265 58.9999 19.9998 59Z" fill="#C4C4C4"/>
<path d="M20 37C23.3137 37 26 34.3137 26 31C26 27.6863 23.3137 25 20 25C16.6863 25 14 27.6863 14 31C14 34.3137 16.6863 37 20 37Z" fill="white"/>
<g clip-path="url(#clip0)">
<path d="M46.3555 35.1352L25.5709 23.1352C25.2122 22.9281 25.0893 22.4694 25.2964 22.1107L34.2964 6.5222C34.5035 6.16348 34.9622 6.04058 35.3209 6.24768L56.1055 18.2477C56.4642 18.4548 56.5871 18.9135 56.38 19.2722L47.38 34.8607C47.1729 35.2194 46.7142 35.3423 46.3555 35.1352Z" fill="#72C472"/>
<path d="M19.5709 33.5274C19.2122 33.3203 19.0893 32.8616 19.2964 32.5029L35.7964 3.92406C36.0035 3.56536 36.4622 3.44244 36.8209 3.64954C37.1796 3.85663 37.3025 4.31536 37.0954 4.67406L20.5954 33.2529C20.3883 33.6116 19.9296 33.7345 19.5709 33.5274Z" fill="#444444"/>
</g>
<defs>
<clipPath id="clip0">
<rect width="36" height="36" fill="white" transform="translate(32) rotate(30)"/>
</clipPath>
</defs>
</svg>
