<svg width="65" height="61" viewBox="0 0 65 61" fill="none" xmlns="http://www.w3.org/2000/svg">
<path d="M19.9998 59C19.7346 58.9999 19.4803 58.8945 19.2928 58.707C18.6268 58.042 2.99983 42.285 2.99983 31C2.97792 28.7614 3.40267 26.5409 4.24924 24.4685C5.09581 22.3961 6.34719 20.5133 7.93017 18.9303C9.51315 17.3473 11.3959 16.0959 13.4684 15.2494C15.5408 14.4028 17.7613 13.978 19.9998 14C22.2384 13.978 24.4589 14.4028 26.5313 15.2494C28.6037 16.0959 30.4865 17.3473 32.0695 18.9303C33.6525 20.5133 34.9039 22.3961 35.7504 24.4685C36.597 26.5409 37.0217 28.7614 36.9998 31C36.9998 42.285 21.3728 58.042 20.7068 58.707C20.5193 58.8945 20.265 58.9999 19.9998 59Z" fill="#5A7A84"/>
<path d="M20 37C23.3137 37 26 34.3137 26 31C26 27.6863 23.3137 25 20 25C16.6863 25 14 27.6863 14 31C14 34.3137 16.6863 37 20 37Z" fill="white"/>
<g clip-path="url(#clip0)">
<path d="M19.1383 33.2774C18.7796 33.0703 18.6567 32.6116 18.8638 32.2529L35.3638 3.67406C35.5709 3.31536 36.0296 3.19244 36.3883 3.39954C36.747 3.60663 36.8699 4.06536 36.6628 4.42406L20.1628 33.0029C19.9557 33.3616 19.497 33.4845 19.1383 33.2774Z" fill="#444444"/>
<path d="M41.3833 9.74768L35.5376 6.37268L32.1626 12.2184L38.0083 15.5934L41.3833 9.74768Z" fill="#444444"/>
<path d="M47.229 13.1227L41.3833 9.74768L38.0083 15.5934L43.854 18.9684L47.229 13.1227Z" fill="#E6E6E6"/>
<path d="M53.0747 16.4977L47.229 13.1227L43.854 18.9684L49.6997 22.3434L53.0747 16.4977Z" fill="#444444"/>
<path d="M58.9204 19.8727L53.0747 16.4977L49.6997 22.3434L55.5454 25.7184L58.9204 19.8727Z" fill="#E6E6E6"/>
<path d="M38.0083 15.5933L32.1626 12.2183L28.7876 18.0639L34.6333 21.4389L38.0083 15.5933Z" fill="#E6E6E6"/>
<path d="M43.854 18.9683L38.0083 15.5933L34.6333 21.4389L40.479 24.8139L43.854 18.9683Z" fill="#444444"/>
<path d="M49.6997 22.3433L43.854 18.9683L40.479 24.8139L46.3247 28.1889L49.6997 22.3433Z" fill="#E6E6E6"/>
<path d="M55.5454 25.7183L49.6997 22.3433L46.3247 28.1889L52.1704 31.5639L55.5454 25.7183Z" fill="#444444"/>
<path d="M34.6333 21.439L28.7876 18.064L25.4126 23.9096L31.2583 27.2846L34.6333 21.439Z" fill="#444444"/>
<path d="M40.479 24.814L34.6333 21.439L31.2583 27.2846L37.104 30.6596L40.479 24.814Z" fill="#E6E6E6"/>
<path d="M46.3247 28.189L40.479 24.814L37.104 30.6596L42.9497 34.0346L46.3247 28.189Z" fill="#444444"/>
<path d="M52.1704 31.564L46.3247 28.189L42.9497 34.0346L48.7954 37.4096L52.1704 31.564Z" fill="#E6E6E6"/>
</g>
<defs>
<clipPath id="clip0">
<rect width="36" height="36" fill="white" transform="translate(32.8662 0.5) rotate(30)"/>
</clipPath>
</defs>
</svg>
