<svg width="70" height="70" viewBox="0 0 70 70" fill="none" xmlns="http://www.w3.org/2000/svg">
<path d="M56.8747 21.8751C60.9018 21.8751 64.1663 18.6105 64.1663 14.5834C64.1663 10.5563 60.9018 7.29175 56.8747 7.29175C52.8476 7.29175 49.583 10.5563 49.583 14.5834C49.583 18.6105 52.8476 21.8751 56.8747 21.8751Z" fill="#9BCED3"/>
<path d="M13.1247 21.8751C17.1518 21.8751 20.4163 18.6105 20.4163 14.5834C20.4163 10.5563 17.1518 7.29175 13.1247 7.29175C9.0976 7.29175 5.83301 10.5563 5.83301 14.5834C5.83301 18.6105 9.0976 21.8751 13.1247 21.8751Z" fill="#9BCED3"/>
<path fill-rule="evenodd" clip-rule="evenodd" d="M52.4948 24.7917C48.4704 24.7917 45.208 28.0432 45.208 32.089V41.9937C45.208 42.8026 45.8163 43.7018 46.5683 44.0025L49.583 45.2084L50.9195 61.2465C50.9868 62.0539 51.702 62.7084 52.4953 62.7084H61.254C62.057 62.7084 62.7634 62.0438 62.8298 61.2465L64.1663 45.2084L67.1571 44.2115C67.9216 43.9567 68.5413 43.0975 68.5413 42.2939V32.0944C68.5413 28.0613 65.2724 24.7917 61.2545 24.7917H52.4948Z" fill="#76B5B5"/>
<path fill-rule="evenodd" clip-rule="evenodd" d="M8.74484 24.7917C4.72043 24.7917 1.45801 28.0432 1.45801 32.089V41.9937C1.45801 42.8026 2.06633 43.7018 2.8183 44.0025L5.83301 45.2084L7.16951 61.2465C7.2368 62.0539 7.95202 62.7084 8.74534 62.7084H17.504C18.307 62.7084 19.0134 62.0438 19.0798 61.2465L20.4163 45.2084L23.4071 44.2115C24.1716 43.9567 24.7913 43.0975 24.7913 42.2939V32.0944C24.7913 28.0613 21.5224 24.7917 17.5045 24.7917H8.74484Z" fill="#76B5B5"/>
<path d="M35 18.9584C39.8325 18.9584 43.75 15.0409 43.75 10.2084C43.75 5.37588 39.8325 1.45837 35 1.45837C30.1675 1.45837 26.25 5.37588 26.25 10.2084C26.25 15.0409 30.1675 18.9584 35 18.9584Z" fill="#5A7A84"/>
<path fill-rule="evenodd" clip-rule="evenodd" d="M29.167 21.875C24.334 21.875 20.416 25.7805 20.416 30.6299V43.7487C20.416 44.5548 20.9967 45.4987 21.7106 45.8556L26.2493 48.125L27.7135 67.2044C27.7762 67.9613 28.4062 68.5417 29.166 68.5417H40.8327C41.5925 68.5417 42.2225 67.9613 42.2852 67.2044L43.6575 47.8275L48.2382 45.8027C48.9807 45.4744 49.5827 44.5599 49.5827 43.7487V30.6299C49.5827 25.7947 45.6794 21.875 40.8317 21.875H29.167Z" fill="#335262"/>
</svg>
