<svg id="Layer_1" data-name="Layer 1" xmlns="http://www.w3.org/2000/svg" xmlns:xlink="http://www.w3.org/1999/xlink" viewBox="0 0 350 350"><defs><style>.cls-1{fill:#fff;}.cls-2{mask:url(#mask);}.cls-3{fill:#e5e5e5;}.cls-4{mask:url(#mask-2-2);}.cls-5{mask:url(#mask-3);}</style><mask id="mask" x="65.06" y="111.15" width="255.62" height="81.75" maskUnits="userSpaceOnUse"><g id="mask-2"><polygon id="path-1" class="cls-1" points="65.06 111.15 320.69 111.15 320.69 192.91 65.06 192.91 65.06 111.15"/></g></mask><mask id="mask-2-2" x="65" y="132.87" width="255.68" height="131.13" maskUnits="userSpaceOnUse"><g id="mask-4"><polygon id="path-3" class="cls-1" points="65.06 132.87 320.69 132.87 320.69 238.54 65.06 238.54 65.06 132.87"/></g></mask><mask id="mask-3" x="65" y="135.27" width="255.68" height="84.05" maskUnits="userSpaceOnUse"><g id="mask-6"><polygon id="path-5" class="cls-1" points="65.06 135.27 320.69 135.27 320.69 219.32 65.06 219.32 65.06 135.27"/></g></mask></defs><title>pl</title><g id="Page-1"><g id="deens-logo"><g id="Group-5"><g id="Fill-1-Clipped"><g class="cls-2"><path id="Fill-1" class="cls-3" d="M302,126a14.73,14.73,0,1,0-14.72,14.79A14.76,14.76,0,0,0,302,126"/></g></g><g id="Fill-3-Clipped"><g class="cls-4"><path id="Fill-3" class="cls-3" d="M65,233.63c0-4.75,3.21-17.78,15.26-19-6.29-12-10.9-19.45-15.26-32.44V264"/></g></g><g id="Fill-4-Clipped"><g class="cls-5"><path id="Fill-4" class="cls-3" d="M131.6,214.61a208.36,208.36,0,0,1-29.85-73.7A36.77,36.77,0,0,0,65,177.75v4.44c4.36,13,9,20.46,15.24,32.42"/></g></g></g><path id="Fill-6" class="cls-3" d="M200.18,214.36a155.8,155.8,0,0,1-44.33-73.45h-54.1a208.54,208.54,0,0,0,29.85,73.7l68.58-.25"/><path id="Fill-7" class="cls-3" d="M283.85,199.94a101.76,101.76,0,0,1-71-59h-57a150.93,150.93,0,0,0,44.33,73.45l54.38.25a36.57,36.57,0,0,0,29.29-14.67"/><path id="Fill-8" class="cls-3" d="M283.85,199.94a37,37,0,0,0,.25-44,14.7,14.7,0,0,1-24.89-10.69,14.78,14.78,0,0,1,.53-4,36.84,36.84,0,0,0-5.18-.36H212.81a101.76,101.76,0,0,0,71,59"/><path id="Fill-9" class="cls-1" d="M112.25,176.81c2.47,0,4-1.19,4-3.18s-1.49-3.17-4-3.17H108.6v6.35Zm.12-12.35c6.54,0,10.5,3.44,10.5,9.17s-4,9.18-10.5,9.18H108.6v8.41h-6.39V164.46Z"/><polyline id="Fill-10" class="cls-1" points="147.48 185.22 147.48 191.22 128.5 191.22 128.5 164.46 134.89 164.46 134.89 185.22 147.48 185.22"/><polyline id="Fill-11" class="cls-1" points="173.09 185.22 173.09 191.22 153.49 191.22 153.49 164.46 172.86 164.46 172.86 170.46 159.89 170.46 159.89 174.86 170.04 174.86 170.04 180.48 159.89 180.48 159.89 185.22 173.09 185.22"/><path id="Fill-12" class="cls-1" d="M194.93,181.4,193,176.2c-.57-1.53-1.25-3.94-1.29-3.94h0s-.72,2.41-1.29,3.94l-1.9,5.2Zm2,5.61H186.44l-1.52,4.21H178l10.66-26.76h6l10.66,26.76H198.5Z"/><path id="Fill-13" class="cls-1" d="M223,173a4.67,4.67,0,0,0-4.6-3.48c-1.9,0-3,.95-3,2,0,1.76,2.67,2.41,5.9,3.6,4,1.45,8.11,3.71,8.11,8.29,0,4.9-4.19,8.38-10.39,8.38a11.38,11.38,0,0,1-11.26-8.11l6.12-1.64a5.79,5.79,0,0,0,5.41,4.05c2.28,0,3.34-1.07,3.34-2.37,0-2.14-3.12-2.68-6.92-4.13-3.2-1.22-6.89-3-6.89-7.68,0-4.17,4.19-7.95,10-7.95a10.59,10.59,0,0,1,10.39,7.34L223,173"/><polyline id="Fill-14" class="cls-1" points="255.19 185.22 255.19 191.22 235.6 191.22 235.6 164.46 254.96 164.46 254.96 170.46 241.99 170.46 241.99 174.86 252.15 174.86 252.15 180.48 241.99 180.48 241.99 185.22 255.19 185.22"/></g></g></svg>