<svg id="Layer_1" data-name="Layer 1" xmlns="http://www.w3.org/2000/svg" xmlns:xlink="http://www.w3.org/1999/xlink" viewBox="0 0 600 400"><defs><style>.cls-1{fill:#fff;}.cls-2{mask:url(#mask);}.cls-3{fill:#f7f7f7;}.cls-4{mask:url(#mask-2-2);}.cls-5{mask:url(#mask-3);}</style><mask id="mask" x="102.1" y="77.23" width="426.08" height="136.27" maskUnits="userSpaceOnUse"><g id="mask-2"><polygon id="path-1" class="cls-1" points="102.1 77.23 528.18 77.23 528.18 213.5 102.1 213.5 102.1 77.23"/></g></mask><mask id="mask-2-2" x="102" y="113.43" width="426.18" height="218.57" maskUnits="userSpaceOnUse"><g id="mask-4"><polygon id="path-3" class="cls-1" points="102.1 113.43 528.18 113.43 528.18 289.56 102.1 289.56 102.1 113.43"/></g></mask><mask id="mask-3" x="102" y="117.43" width="426.18" height="140.1" maskUnits="userSpaceOnUse"><g id="mask-6"><polygon id="path-5" class="cls-1" points="102.1 117.43 528.18 117.43 528.18 257.53 102.1 257.53 102.1 117.43"/></g></mask></defs><title>pl</title><g id="Page-1"><g id="deens-logo"><g id="Group-5"><g id="Fill-1-Clipped"><g class="cls-2"><path id="Fill-1" class="cls-3" d="M497,101.89a24.54,24.54,0,1,0-24.54,24.66A24.61,24.61,0,0,0,497,101.89"/></g></g><g id="Fill-3-Clipped"><g class="cls-4"><path id="Fill-3" class="cls-3" d="M102,281.38c.07-7.92,5.34-29.63,25.44-31.67C117,229.78,109.27,217.28,102,195.64V332"/></g></g><g id="Fill-4-Clipped"><g class="cls-5"><path id="Fill-4" class="cls-3" d="M213,249.67a347.38,347.38,0,0,1-49.74-122.85A61.3,61.3,0,0,0,102,188.24v7.4c7.27,21.64,14.91,34.1,25.4,54"/></g></g></g><path id="Fill-6" class="cls-3" d="M327.32,249.26a259.53,259.53,0,0,1-73.88-122.44H163.26C172.18,171.36,189,213.06,213,249.67l114.32-.41"/><path id="Fill-7" class="cls-3" d="M466.78,225.22a169.62,169.62,0,0,1-118.41-98.4H253.44c12.73,47.76,37.72,89.42,73.88,122.44l90.64.41a60.94,60.94,0,0,0,48.82-24.45"/><path id="Fill-8" class="cls-3" d="M466.78,225.22a61.69,61.69,0,0,0,.43-73.37A24.52,24.52,0,0,1,425.7,134a24.73,24.73,0,0,1,.9-6.59,61.55,61.55,0,0,0-8.64-.62H348.37a169.62,169.62,0,0,0,118.41,98.4"/><path id="Fill-9" class="cls-1" d="M180.76,186.67c4.12,0,6.59-2,6.59-5.29s-2.47-5.29-6.59-5.29h-6.09v10.58Zm.19-20.58c10.91,0,17.5,5.73,17.5,15.29s-6.59,15.29-17.5,15.29h-6.28v14H164v-44.6Z"/><polyline id="Fill-10" class="cls-1" points="239.48 200.68 239.48 210.69 207.84 210.69 207.84 166.09 218.49 166.09 218.49 200.68 239.48 200.68"/><polyline id="Fill-11" class="cls-1" points="282.16 200.68 282.16 210.69 249.5 210.69 249.5 166.09 281.78 166.09 281.78 176.09 260.16 176.09 260.16 183.42 277.09 183.42 277.09 192.78 260.16 192.78 260.16 200.68 282.16 200.68"/><path id="Fill-12" class="cls-1" d="M318.56,194.31l-3.17-8.66c-.95-2.55-2.09-6.57-2.15-6.57h-.07c-.06,0-1.2,4-2.15,6.57l-3.18,8.66Zm3.43,9.37H304.42l-2.54,7H290.4l17.76-44.6h10.08L336,210.69H324.52Z"/><path id="Fill-13" class="cls-1" d="M365.36,180.23a7.8,7.8,0,0,0-7.67-5.8c-3.17,0-5,1.6-5,3.38,0,2.93,4.44,4,9.83,6C369.1,186.22,376,190,376,197.63c0,8.15-7,14-17.32,14-9.25,0-15.85-5.16-18.77-13.51l10.21-2.74a9.64,9.64,0,0,0,9,6.76c3.8,0,5.58-1.79,5.58-4,0-3.57-5.2-4.46-11.54-6.89-5.33-2-11.48-5-11.48-12.8,0-6.95,7-13.26,16.61-13.26,8.5,0,15.23,5.23,17.32,12.24l-10.28,2.8"/><polyline id="Fill-14" class="cls-1" points="419.01 200.68 419.01 210.69 386.36 210.69 386.36 166.09 418.63 166.09 418.63 176.09 397.01 176.09 397.01 183.42 413.94 183.42 413.94 192.78 397.01 192.78 397.01 200.68 419.01 200.68"/></g></g></svg>