<svg width="48" height="48" viewBox="0 0 48 48" fill="none" xmlns="http://www.w3.org/2000/svg">
<path d="M14.625 24C15.6605 24 16.5 23.1605 16.5 22.125C16.5 21.0895 15.6605 20.25 14.625 20.25C13.5895 20.25 12.75 21.0895 12.75 22.125C12.75 23.1605 13.5895 24 14.625 24Z" stroke="#C4C4C4" stroke-width="2" stroke-miterlimit="10" stroke-linecap="square"/>
<path d="M33.375 24C34.4105 24 35.25 23.1605 35.25 22.125C35.25 21.0895 34.4105 20.25 33.375 20.25C32.3395 20.25 31.5 21.0895 31.5 22.125C31.5 23.1605 32.3395 24 33.375 24Z" stroke="#C4C4C4" stroke-width="2" stroke-miterlimit="10" stroke-linecap="square"/>
<path d="M24 45C35.598 45 45 35.598 45 24C45 12.402 35.598 3 24 3C12.402 3 3 12.402 3 24C3 35.598 12.402 45 24 45Z" stroke="#C4C4C4" stroke-width="2" stroke-miterlimit="10" stroke-linecap="square"/>
<path d="M31.8 36C31.0104 34.6308 29.8741 33.4938 28.5055 32.7032C27.1369 31.9127 25.5843 31.4965 24.0038 31.4965C22.4233 31.4965 20.8706 31.9127 19.502 32.7032C18.1334 33.4938 16.9972 34.6308 16.2075 36" stroke="#C4C4C4" stroke-width="2" stroke-miterlimit="10" stroke-linecap="square"/>
<path d="M16 22.125C16 22.8844 15.3844 23.5 14.625 23.5C13.8656 23.5 13.25 22.8844 13.25 22.125C13.25 21.3656 13.8656 20.75 14.625 20.75C15.3844 20.75 16 21.3656 16 22.125Z" fill="#C4C4C4" stroke="#C4C4C4"/>
<path d="M34.75 22.125C34.75 22.8844 34.1344 23.5 33.375 23.5C32.6156 23.5 32 22.8844 32 22.125C32 21.3656 32.6156 20.75 33.375 20.75C34.1344 20.75 34.75 21.3656 34.75 22.125Z" fill="#C4C4C4" stroke="#C4C4C4"/>
</svg>
