<svg width="34" height="46" viewBox="0 0 34 46" fill="none" xmlns="http://www.w3.org/2000/svg">
<path d="M33.8949 44.5527L27.8949 32.5527C27.6478 32.0585 27.0477 31.8593 26.5531 32.1054C26.059 32.3525 25.8588 32.9531 26.1058 33.4472L29.3822 40H4.61855L7.89492 33.4472C8.14199 32.9531 7.9418 32.3525 7.44765 32.1054C6.95204 31.8593 6.35292 32.0585 6.10585 32.5527L0.105847 44.5527C-0.141223 45.0468 0.0589665 45.6474 0.553116 45.8945C0.696676 45.9658 0.849506 46 0.999406 46C1.3666 46 1.71962 45.7978 1.89492 45.4472L3.61855 42H30.3822L32.1058 45.4472C32.2811 45.7978 32.6342 46 33.0014 46C33.1513 46 33.3041 45.9658 33.4477 45.8945C33.9418 45.6474 34.142 45.0468 33.8949 44.5527Z" fill="#B3B3B3"/>
<path d="M34 33H0V4C0 1.79086 1.79086 0 4 0H30C32.2091 0 34 1.79086 34 4V33Z" fill="#E86C60"/>
<path d="M5 29C3.89714 29 3 28.1029 3 27C3 25.8971 3.89714 25 5 25C6.10286 25 7 25.8971 7 27C7 28.1029 6.10286 29 5 29Z" fill="white"/>
<path d="M10.5 31C9.67285 31 9 30.3271 9 29.5C9 28.6729 9.67285 28 10.5 28C11.3271 28 12 28.6729 12 29.5C12 30.3271 11.3271 31 10.5 31Z" fill="#EFD358"/>
<path d="M23.5 31C22.6729 31 22 30.3271 22 29.5C22 28.6729 22.6729 28 23.5 28C24.3271 28 25 28.6729 25 29.5C25 30.3271 24.3271 31 23.5 31Z" fill="#EFD358"/>
<path d="M29 29C27.8971 29 27 28.1029 27 27C27 25.8971 27.8971 25 29 25C30.1029 25 31 25.8971 31 27C31 28.1029 30.1029 29 29 29Z" fill="white"/>
<path d="M25.9999 23H7.99995C7.5312 23 7.12544 22.6743 7.02388 22.2168L3.02388 4.2168C2.95796 3.9209 3.03023 3.61084 3.21968 3.37451C3.40962 3.1377 3.69673 3 3.99995 3H29.9999C30.3032 3 30.5903 3.1377 30.7802 3.37451C30.9697 3.61084 31.0419 3.9209 30.976 4.2168L26.976 22.2168C26.8745 22.6743 26.4687 23 25.9999 23Z" fill="#5B5B5B"/>
<path d="M34 33H0V35C0 35.5523 0.44772 36 1 36H33C33.5523 36 34 35.5523 34 35V33Z" fill="#5B5B5B"/>
<path d="M12 23H9L17 3H20L12 23Z" fill="#808080"/>
<path d="M17 23H15L23 3H25L17 23Z" fill="#808080"/>
</svg>
