<svg width="48" height="48" viewBox="0 0 48 48" fill="none" xmlns="http://www.w3.org/2000/svg">
<path d="M26 11C28.7614 11 31 8.76142 31 6C31 3.23858 28.7614 1 26 1C23.2386 1 21 3.23858 21 6C21 8.76142 23.2386 11 26 11Z" fill="#5A7A84"/>
<path d="M21.45 18.561L22.433 13.323L12.974 18.073C12.5346 18.2927 12.1914 18.6665 12.01 19.123L9.96697 24.26C9.82718 24.6265 9.83717 25.0334 9.99477 25.3926C10.1524 25.7518 10.445 26.0347 10.8093 26.18C11.1737 26.3254 11.5806 26.3216 11.9422 26.1695C12.3038 26.0173 12.5911 25.7291 12.742 25.367L14.654 20.587L21.45 18.561Z" fill="#335262"/>
<path d="M31.2 32.4L23.562 26.656L21.854 32.488L28 36V44C28 44.5304 28.2107 45.0392 28.5858 45.4142C28.9609 45.7893 29.4696 46 30 46C30.5304 46 31.0391 45.7893 31.4142 45.4142C31.7893 45.0392 32 44.5304 32 44V34C32 33.6895 31.9277 33.3833 31.7889 33.1056C31.65 32.8279 31.4484 32.5863 31.2 32.4Z" fill="#335262"/>
<path d="M39.083 19.083C39.0099 18.9001 38.9014 18.7333 38.7639 18.5923C38.6263 18.4513 38.4623 18.3387 38.2812 18.2611C38.1001 18.1834 37.9055 18.1422 37.7085 18.1398C37.5115 18.1374 37.3159 18.1738 37.133 18.247L32.365 20.12L27 14.375C26.4964 13.7916 25.8338 13.3674 25.0931 13.1543C24.3525 12.9412 23.5658 12.9483 22.8291 13.1748C22.0924 13.4013 21.4376 13.8374 20.9446 14.4298C20.4517 15.0223 20.1418 15.7454 20.053 16.511C20.053 16.511 15 44.4 15 45C15.007 45.4789 15.1857 45.9395 15.5035 46.2978C15.8213 46.6562 16.2572 46.8885 16.7318 46.9527C17.2065 47.0169 17.6884 46.9086 18.09 46.6475C18.4915 46.3864 18.7861 45.9899 18.92 45.53L27.105 20.33L30.953 22.96C31.224 23.1453 31.5365 23.261 31.8628 23.2969C32.1891 23.3328 32.5192 23.2879 32.824 23.166L38.247 21.032C38.6162 20.8843 38.9117 20.5961 39.0685 20.2306C39.2253 19.8651 39.2305 19.4523 39.083 19.083V19.083Z" fill="#5A7A84"/>
</svg>
